<svg width="148" height="132" xmlns="http://www.w3.org/2000/svg" xmlns:xlink="http://www.w3.org/1999/xlink" xml:space="preserve" overflow="hidden"><defs><clipPath id="clip0"><rect x="3387" y="1958" width="148" height="132"/></clipPath><clipPath id="clip1"><rect x="3429" y="1996" width="63" height="56"/></clipPath><clipPath id="clip2"><rect x="3429" y="1996" width="63" height="56"/></clipPath><clipPath id="clip3"><rect x="3429" y="1996" width="63" height="56"/></clipPath></defs><g clip-path="url(#clip0)" transform="translate(-3387 -1958)"><path d="M0 66C-9.4212e-15 29.5492 33.131-8.40268e-15 74.0001-1.68054e-14 114.869-3.36107e-14 148 29.5492 148 66 148 102.451 114.869 132 74.0001 132 33.131 132-4.7106e-14 102.451 0 66Z" fill="#262626" fill-rule="evenodd" transform="matrix(-1 0 0 1 3535 1958)"/><g clip-path="url(#clip1)"><g clip-path="url(#clip2)"><g clip-path="url(#clip3)"><path d="M40.3789 55.9997C39.549 55.9997 38.7174 55.6858 38.0847 55.0514L13.3282 30.2916C12.0611 29.0245 12.0611 26.9735 13.3282 25.7064L38.0847 0.949899C39.3518-0.317181 41.4044-0.317181 42.6715 0.949899 43.9386 2.21698 43.9386 4.26962 42.6715 5.53505L20.2059 27.999 42.6715 50.463C43.9386 51.7301 43.9386 53.7843 42.6715 55.0514 42.0388 55.6841 41.2089 55.9997 40.3789 55.9997Z" fill="#FFFFFF" transform="matrix(-1.0893 0 0 1 3491 1996)"/></g></g></g></g></svg>