<svg width="139" height="132" xmlns="http://www.w3.org/2000/svg" xmlns:xlink="http://www.w3.org/1999/xlink" xml:space="preserve" overflow="hidden"><defs><clipPath id="clip0"><rect x="781" y="765" width="139" height="132"/></clipPath><clipPath id="clip1"><rect x="822" y="801" width="57" height="59"/></clipPath><clipPath id="clip2"><rect x="822" y="801" width="57" height="59"/></clipPath><clipPath id="clip3"><rect x="822" y="801" width="57" height="59"/></clipPath></defs><g clip-path="url(#clip0)" transform="translate(-781 -765)"><path d="M781 831C781 794.549 812.116 765 850.5 765 888.884 765 920 794.549 920 831 920 867.451 888.884 897 850.5 897 812.116 897 781 867.451 781 831Z" fill="#262626" fill-rule="evenodd"/><g clip-path="url(#clip1)"><g clip-path="url(#clip2)"><g clip-path="url(#clip3)"><path d="M40.3792 56C39.5493 56 38.7177 55.6861 38.0849 55.0518L13.3283 30.2918C12.0612 29.0247 12.0612 26.9737 13.3283 25.7066L38.0849 0.949905C39.352-0.317183 41.4047-0.317183 42.6718 0.949905 43.9389 2.21699 43.9389 4.26964 42.6718 5.53509L20.206 27.9992 42.6718 50.4633C43.9389 51.7304 43.9389 53.7847 42.6718 55.0518 42.0391 55.6845 41.2091 56 40.3792 56Z" fill="#FFFFFF" transform="matrix(1 0 0 1.01786 823 802)"/></g></g></g></g></svg>