<svg xmlns="http://www.w3.org/2000/svg" viewBox="0 0 500 500"><g id="freepik--background-simple--inject-65"><path d="M246.81,88.51c-76.74,34.52-7.07,96.06-51.38,129.57s-164.78-5.23-118.86,81.8c54,102.22,290.18,88,341.11-37.36S323.55,54,246.81,88.51Z" style="fill:#7E57C2"></path><path d="M246.81,88.51c-76.74,34.52-7.07,96.06-51.38,129.57s-164.78-5.23-118.86,81.8c54,102.22,290.18,88,341.11-37.36S323.55,54,246.81,88.51Z" style="fill:#fff;opacity:0.9"></path></g><g id="freepik--Shadow--inject-65"><ellipse id="freepik--path--inject-65" cx="250" cy="420.2" rx="151.42" ry="11.32" style="fill:#f5f5f5"></ellipse></g><g id="freepik--Character--inject-65"><path d="M227.9,141.5a93.43,93.43,0,0,0-72.07-24.3C115,120.92,82.5,151,73.05,193.87c-8.7,39.48,3.07,93.72,60.63,130.92L129,332.42l22.95-.52L142,311.19,137.87,318c-54-35-65.11-85.61-57-122.38,8.68-39.38,38.39-67,75.7-70.42a85.44,85.44,0,0,1,65.94,22.24c12.78,11.66,21,26.62,21,38.09h8C251.54,171.67,242.48,154.81,227.9,141.5Z" style="fill:#7E57C2"></path><path d="M227.9,141.5a93.43,93.43,0,0,0-72.07-24.3C115,120.92,82.5,151,73.05,193.87c-8.7,39.48,3.07,93.72,60.63,130.92L129,332.42l22.95-.52L142,311.19,137.87,318c-54-35-65.11-85.61-57-122.38,8.68-39.38,38.39-67,75.7-70.42a85.44,85.44,0,0,1,65.94,22.24c12.78,11.66,21,26.62,21,38.09h8C251.54,171.67,242.48,154.81,227.9,141.5Z" style="fill:#fff;opacity:0.7000000000000001"></path><path d="M413.93,259.82c-4.31,31.69-24.09,60.83-53.34,74.27a109.29,109.29,0,0,1-45.39,9.74,111,111,0,0,1-17.55-1.39c-22.79-3.66-42.46-14.51-55.39-30.56-29-36-18.17-84.73,1.65-118.3l6.89,4.07C232.34,228.91,222,274,248.49,306.86c26.7,33.15,76,35,108.76,20,26.1-12,43.95-37.68,48.47-65.87a88.32,88.32,0,0,0,1.06-17.29,84.23,84.23,0,0,0-3-19.51c-4-14.29-16.8-27-31.46-23.51a22.37,22.37,0,0,0-16.74,24.67c1.35,9.76,9.66,17,17,20.45L369.12,253c-11.92-5.69-19.95-15.62-21.46-26.59a30.43,30.43,0,0,1,22.81-33.54c19.35-4.61,36,11.21,41,29.15a91.3,91.3,0,0,1,3.07,17.69A95.2,95.2,0,0,1,413.93,259.82Z" style="fill:#263238"></path><g style="opacity:0.8"><path d="M413.93,259.82c-4.31,31.69-24.09,60.83-53.34,74.27a109.29,109.29,0,0,1-45.39,9.74,111,111,0,0,1-17.55-1.39c-22.79-3.66-42.46-14.51-55.39-30.56-29-36-18.17-84.73,1.65-118.3l6.89,4.07C232.34,228.91,222,274,248.49,306.86c26.7,33.15,76,35,108.76,20,26.1-12,43.95-37.68,48.47-65.87a88.32,88.32,0,0,0,1.06-17.29,84.23,84.23,0,0,0-3-19.51c-4-14.29-16.8-27-31.46-23.51a22.37,22.37,0,0,0-16.74,24.67c1.35,9.76,9.66,17,17,20.45L369.12,253c-11.92-5.69-19.95-15.62-21.46-26.59a30.43,30.43,0,0,1,22.81-33.54c19.35-4.61,36,11.21,41,29.15a91.3,91.3,0,0,1,3.07,17.69A95.2,95.2,0,0,1,413.93,259.82Z" style="fill:#fff"></path></g><path d="M413.93,259.82a54.8,54.8,0,0,1-8.21,1.13,88.32,88.32,0,0,0,1.06-17.29,62.91,62.91,0,0,0,7.78-4A95.2,95.2,0,0,1,413.93,259.82Z" style="opacity:0.2"></path><path d="M438.37,233.74,415.43,233l4.32,7.21c-9.95,5.42-29.95,13.81-47.19,5.59-7.32-3.49-15.63-10.69-17-20.45l-7.92,1.09c1.51,11,9.54,20.9,21.46,26.58a44.5,44.5,0,0,0,19.33,4.21c14.36,0,27.73-5.95,35.41-10.16l4.38,7.3Z" style="fill:#263238"></path><path d="M438.37,233.74,415.43,233l4.32,7.21c-9.95,5.42-29.95,13.81-47.19,5.59-7.32-3.49-15.63-10.69-17-20.45l-7.92,1.09c1.51,11,9.54,20.9,21.46,26.58a44.5,44.5,0,0,0,19.33,4.21c14.36,0,27.73-5.95,35.41-10.16l4.38,7.3Z" style="fill:#fff;opacity:0.8"></path><path d="M419.94,122.64l-13.47-18.58L395.06,124l8.48-.45c.67,15-19,19.87-23.11,20.73A191.64,191.64,0,0,1,359.18,147c-16.52,1.54-33.6,3.14-47.82,13.62a49.68,49.68,0,0,0-19.65,34.89c-1.11,13.44,4.79,26.42,15,33.07a27.81,27.81,0,0,0,15.15,4.6,25.5,25.5,0,0,0,11.07-2.5,26.27,26.27,0,0,0,14.63-21.35c1.1-10.69-4.12-22.66-13.29-30.48L329.11,185c7.12,6.07,11.35,15.54,10.52,23.57a18.08,18.08,0,0,1-10.12,14.95c-5.85,2.8-12.56,2.22-18.41-1.59-7.69-5-12.27-15.32-11.42-25.71a41.5,41.5,0,0,1,16.42-29.1c12.43-9.16,27.68-10.59,43.82-12.09a200.9,200.9,0,0,0,22.15-2.9c14.43-3,30.29-12.38,29.46-29Z" style="fill:#7E57C2"></path><path d="M411.53,123.09c.83,16.61-15,26-29.46,29a200.9,200.9,0,0,1-22.15,2.9c-16.09,1.5-31.29,2.92-43.7,12l-.12.09a41.31,41.31,0,0,0-11.6,13.42,39.58,39.58,0,0,0-4.82,15.68c-.85,10.39,3.73,20.72,11.42,25.71,5.85,3.81,12.56,4.39,18.41,1.59a18.08,18.08,0,0,0,10.12-14.95c.62-6-1.61-12.88-5.79-18.49,3.16-1.29,5.73-3.2,5.51-6,6,7.4,9.12,16.75,8.24,25.28A26.28,26.28,0,0,1,333,230.69a25.64,25.64,0,0,1-11.07,2.5,27.84,27.84,0,0,1-15.15-4.6c-10.24-6.65-16.14-19.64-15-33.07a47.14,47.14,0,0,1,4.68-16.7,50.1,50.1,0,0,1,10.67-14.59,44.55,44.55,0,0,1,4.3-3.6c14.22-10.48,31.3-12.08,47.82-13.62a189.74,189.74,0,0,0,21.26-2.77c4.09-.85,23.77-5.76,23.1-20.73l-8.48.46,11.41-19.92,13.47,18.59Z" style="fill:#fff;opacity:0.5"></path><path d="M316.22,167l-.12.09a41.31,41.31,0,0,0-11.6,13.42,44.13,44.13,0,0,0-8.11-1.67,50.1,50.1,0,0,1,10.67-14.59A73.56,73.56,0,0,1,316.22,167Z" style="opacity:0.2"></path><path d="M347.59,209.34l-8-.82c.83-8-3.4-17.5-10.52-23.57-20-17-55.82-11.78-75.49,3.6l-4.92-6.31c22.57-17.64,62.35-23.21,85.6-3.38C343.47,186.68,348.69,198.65,347.59,209.34Z" style="fill:#7E57C2"></path><g style="opacity:0.5"><path d="M347.59,209.34l-8-.82c.83-8-3.4-17.5-10.52-23.57-20-17-55.82-11.78-75.49,3.6l-4.92-6.31c22.57-17.64,62.35-23.21,85.6-3.38C343.47,186.68,348.69,198.65,347.59,209.34Z" style="fill:#fff"></path></g><path d="M286.74,392.54c-37.39,0-74.72-16.08-98.94-44.09-19.32-22.35-30.29-52.74-30.1-83.4A122.9,122.9,0,0,1,162.38,232c3.41-11.89,8.92-19.36,16.13-26.91a73.21,73.21,0,0,1,62.24-22l-1,7.93a65.21,65.21,0,0,0-55.43,19.54c-7.76,8.14-11.62,14.53-14.22,23.6a115,115,0,0,0-4.37,30.89c-.18,28.75,10.08,57.22,28.15,78.12,28.7,33.2,77.08,48.52,120.39,38.11,21.81-5.25,41.28-16.51,54.81-31.72,14.7-16.51,22.48-37.73,21.34-58.21-1.52-27.29-20-53.78-45.91-65.91-24.86-11.63-56.26-10.49-82,3-3.33,1.74-6.67,3.73-9.9,5.66-7.33,4.36-14.9,8.88-23.46,11.32l-2.2-7.69c7.56-2.16,14.36-6.21,21.57-10.5,3.32-2,6.76-4,10.27-5.87,27.87-14.62,62-15.83,89.07-3.16,28.53,13.35,48.83,42.57,50.51,72.72,1.25,22.57-7.26,45.89-23.35,64-14.61,16.42-35.54,28.55-58.92,34.18A126.07,126.07,0,0,1,286.74,392.54Z" style="fill:#263238"></path><g style="opacity:0.5"><path d="M375,354.93c-14.61,16.42-35.54,28.55-58.93,34.17a125.42,125.42,0,0,1-29.37,3.44c-37.38,0-74.72-16.08-98.94-44.1-19.31-22.34-30.28-52.74-30.09-83.39a123.32,123.32,0,0,1,4.11-31q.27-1,.57-2.07A57,57,0,0,1,170,215.37a78.62,78.62,0,0,1,8.48-10.29,73.21,73.21,0,0,1,62.25-21.94l-1,7.93a65.2,65.2,0,0,0-55.42,19.54A68.8,68.8,0,0,0,175.9,221a48.32,48.32,0,0,0-5.83,13.2c-.63,2.21-1.2,4.44-1.69,6.7a115.52,115.52,0,0,0-2.68,24.19c-.18,28.74,10.08,57.21,28.15,78.11,28.7,33.21,77.08,48.53,120.38,38.11,21.82-5.24,41.29-16.5,54.82-31.71,14.7-16.51,22.48-37.73,21.34-58.21-1.52-27.29-20-53.78-45.92-65.92-24.85-11.63-56.25-10.48-82,3-3.33,1.74-6.67,3.73-9.9,5.66-7.33,4.36-14.9,8.88-23.46,11.32l-2.2-7.69c7.56-2.16,14.36-6.21,21.56-10.51,3.33-2,6.77-4,10.28-5.87,27.87-14.61,62-15.82,89.06-3.15,28.54,13.35,48.84,42.57,50.52,72.71C399.63,313.53,391.12,336.85,375,354.93Z" style="fill:#fff"></path></g><path d="M175.9,221a48.32,48.32,0,0,0-5.83,13.2c-.63,2.21-1.2,4.44-1.69,6.7a82.81,82.81,0,0,1-6.57-6.84q.27-1,.57-2.07A57,57,0,0,1,170,215.37,80.39,80.39,0,0,0,175.9,221Z" style="opacity:0.2"></path><path d="M258.8,221.4c-3.51,1.84-7,3.89-10.27,5.87-7.21,4.29-14,8.34-21.57,10.5-15.53,4.45-34.54-.05-49.59-11.74-12.4-9.62-22.87-23.93-32-43.75-4.21-9.12-7.88-18.73-11.43-28-2.08-5.46-4.24-11.11-6.49-16.63-5.08-12.44-13.09-20.87-23-24.42l3.72-7.6L85.4,108.35,97.25,128l3.69-7.53c10.73,3.42,16.49,13.78,19.1,20.19,2.22,5.44,4.36,11,6.43,16.46,3.59,9.41,7.31,19.14,11.63,28.51,9.69,21,20.93,36.29,34.36,46.72,12.74,9.89,27.61,15.16,41.83,15.16a54,54,0,0,0,14.87-2c8.56-2.44,16.13-7,23.46-11.32,3.23-1.93,6.57-3.92,9.9-5.66Z" style="fill:#263238"></path><path d="M258.8,221.4c-3.51,1.84-7,3.89-10.27,5.87-7.21,4.29-14,8.34-21.57,10.5-15.53,4.45-34.54-.05-49.59-11.74-12.4-9.62-22.87-23.93-32-43.75-4.21-9.12-7.88-18.73-11.43-28-2.08-5.46-4.24-11.11-6.49-16.63-5.08-12.44-13.09-20.87-23-24.42l3.72-7.6L85.4,108.35,97.25,128l3.69-7.53c10.73,3.42,16.49,13.78,19.1,20.19,2.22,5.44,4.36,11,6.43,16.46,3.59,9.41,7.31,19.14,11.63,28.51,9.69,21,20.93,36.29,34.36,46.72,12.74,9.89,27.61,15.16,41.83,15.16a54,54,0,0,0,14.87-2c8.56-2.44,16.13-7,23.46-11.32,3.23-1.93,6.57-3.92,9.9-5.66Z" style="fill:#fff;opacity:0.5"></path><circle cx="248.07" cy="188.13" r="14.61" transform="translate(7.98 386.34) rotate(-76.72)" style="fill:#7E57C2"></circle><circle cx="248.07" cy="188.13" r="14.61" transform="translate(7.98 386.34) rotate(-76.72)" style="fill:#fff;opacity:0.5"></circle><path d="M406.81,369c-7.36.52-15,.9-22.75.9-32.77,0-66.52-6.69-82.54-36.47a87.84,87.84,0,0,1-10-36.78,89.93,89.93,0,0,1,.85-18.05q.57-3.78,1.47-7.47c2-8.27,5.83-15.14,11-19.87A26.27,26.27,0,0,1,325,244.71a30.1,30.1,0,0,1,20.9,11l-6.27,5a22,22,0,0,0-15.27-8,18.39,18.39,0,0,0-14.08,4.53c-4,3.65-7,9.14-8.64,15.87a74.73,74.73,0,0,0-1.61,8.84,82.22,82.22,0,0,0-.24,17.95,79,79,0,0,0,8.82,29.81c17.62,32.75,61.45,34,97.67,31.38Z" style="fill:#7E57C2"></path><path d="M242.66,178.91,235,181.3a14.16,14.16,0,0,0-8.89-9.3c-8.37-3.23-19.5-.94-26.18,3a31.16,31.16,0,0,0-14.14,18.65,33.71,33.71,0,0,0-1,13.25,35.32,35.32,0,0,0,.81,4.25A95.21,95.21,0,0,0,190.76,225c4.84,11.42,10.33,24.36,3.25,38-7.18,13.83-22.84,18.59-35.37,18.59-1.13,0-2.23,0-3.3-.11-19-1.32-41.53-14.81-52.29-31.39-7.46-11.48-9.18-23.6-5-35.07l7.52,2.74c-4.15,11.39,0,21.5,4.2,28,9.52,14.67,29.36,26.61,46.13,27.77,10.53.73,25-2.55,31-14.19,5.35-10.3,1.24-20-3.52-31.2-2.75-6.49-5.6-13.2-6.47-20.26,0-.39-.09-.79-.13-1.18a41.52,41.52,0,0,1,1.4-15.45,39.14,39.14,0,0,1,17.71-23.16c8.08-4.75,21.89-7.89,33.12-3.56A22.1,22.1,0,0,1,242.66,178.91Z" style="fill:#7E57C2"></path><polygon points="419.46 365.01 399.61 353.5 400.81 378.38 419.46 365.01" style="fill:#7E57C2"></polygon><path d="M184.86,206.89a35.32,35.32,0,0,0,.81,4.25,56.51,56.51,0,0,0-8.88-4.44,41.52,41.52,0,0,1,1.4-15.45c2.44.64,5,1.43,7.63,2.39A33.71,33.71,0,0,0,184.86,206.89Z" style="opacity:0.2"></path><path d="M299.75,299.87a53.07,53.07,0,0,1-8.24-3.18,89.93,89.93,0,0,1,.85-18.05,66.55,66.55,0,0,0,7.63,3.28A82.22,82.22,0,0,0,299.75,299.87Z" style="opacity:0.2"></path><path d="M238.52,352.37A65.39,65.39,0,0,1,209.27,346c-16.25-8.15-30.07-27.18-25-47.77a37.51,37.51,0,0,1,22.23-25.61l3,7.44A29.39,29.39,0,0,0,192,300.11c-4.05,16.53,7.42,32,20.84,38.72,11.46,5.74,26.44,7.08,42.19,3.77,27.42-5.77,59.24-25.72,58.66-63-.21-13.56-4.68-27.82-12.91-41.25-9-14.72-24.64-34.08-47.77-42.77l2.81-7.49c25.26,9.49,42.1,30.29,51.78,46.07,9,14.66,13.86,30.33,14.09,45.32a64.08,64.08,0,0,1-19.4,47.37c-11.46,11.41-27.66,19.77-45.62,23.54A87.83,87.83,0,0,1,238.52,352.37Z" style="fill:#263238"></path><g style="opacity:0.2"><path d="M321.71,279.51a64.08,64.08,0,0,1-19.4,47.37c-9.87,9.83-23.25,17.39-38.25,21.71q-3.63,1.05-7.37,1.83a87.83,87.83,0,0,1-18.17,1.95,74.1,74.1,0,0,1-13.83-1.27A59.48,59.48,0,0,1,209.27,346c-16.25-8.15-30.07-27.18-25-47.77a37.51,37.51,0,0,1,22.23-25.61l3,7.44A29.39,29.39,0,0,0,192,300.11c-4.05,16.53,7.42,32,20.84,38.72a54.08,54.08,0,0,0,19,5.23,77,77,0,0,0,23.23-1.46,94.25,94.25,0,0,0,14.2-4.19c23.11-8.87,44.94-27.87,44.46-58.78-.21-13.56-4.68-27.82-12.91-41.25-9-14.72-24.64-34.08-47.77-42.77l2.81-7.49c25.26,9.49,42.1,30.29,51.78,46.07C316.6,248.85,321.48,264.52,321.71,279.51Z" style="fill:#fff"></path></g><path d="M269.25,338.41a35.56,35.56,0,0,1-5.19,10.18q-3.63,1.05-7.37,1.83a87.83,87.83,0,0,1-18.17,1.95,74.1,74.1,0,0,1-13.83-1.27,38.08,38.08,0,0,0,7.13-7,77,77,0,0,0,23.23-1.46A94.25,94.25,0,0,0,269.25,338.41Z" style="opacity:0.2"></path><path d="M250.77,410.34a.82.82,0,0,1-.76-.51.87.87,0,0,1-.06-.71,3.53,3.53,0,0,1,1.27-1.38c-.76.19-1.51.26-1.83,0s-.23-.49-.07-.87a1.28,1.28,0,0,1,.8-.74c1.17-.4,3,.54,3.12.58a.27.27,0,0,1,.08.07h0l0,0h0a.19.19,0,0,1,0,.08.15.15,0,0,1,0,.07h0a10,10,0,0,1-1.91,3.06A1.17,1.17,0,0,1,250.77,410.34Zm-.39-1.09a.43.43,0,0,0,0,.37c.16.29.3.29.35.29.51,0,1.35-1.37,1.92-2.56C251.82,407.82,250.6,408.61,250.38,409.25Zm-.64-2.26c-.05.12-.12.32,0,.4.28.26,1.63-.06,2.88-.54a3.82,3.82,0,0,0-2.31-.35.74.74,0,0,0-.3.17A.75.75,0,0,0,249.74,407Z" style="fill:#7E57C2"></path><path d="M259.72,400.14c-.48-.49-6.41,5.41-6.41,5.41s-.28,7.17-3.24,11.31,1.21,4.47,5.42.79l10.4-9.1C268.88,405.93,264.69,405.12,259.72,400.14Z" style="fill:#7E57C2"></path><path d="M259.72,400.14c-.48-.49-6.41,5.41-6.41,5.41s-.28,7.17-3.24,11.31,1.21,4.47,5.42.79l10.4-9.1C268.88,405.93,264.69,405.12,259.72,400.14Z" style="fill:#fff;opacity:0.30000000000000004"></path><path d="M259.72,400.14c-.48-.49-6.41,5.41-6.41,5.41s-.28,7.17-3.24,11.31,1.21,4.47,5.42.79l10.4-9.1C268.88,405.93,264.69,405.12,259.72,400.14Z" style="opacity:0.2"></path><path d="M253.58,415.31a.76.76,0,0,1-.21-.87.87.87,0,0,1,.45-.55,3.61,3.61,0,0,1,1.9-.23c-.69-.34-1.31-.77-1.34-1.2,0-.28.17-.51.55-.69a1.39,1.39,0,0,1,1.11,0c1.16.45,1.9,2.34,1.93,2.43a.16.16,0,0,1,0,.1h0a.06.06,0,0,1,0,0h0l-.05.07a.1.1,0,0,1-.05,0h0a10.94,10.94,0,0,1-3.55,1.07A1.17,1.17,0,0,1,253.58,415.31Zm.46-1.05a.45.45,0,0,0-.24.29c-.08.32,0,.4.07.43.4.31,2-.16,3.21-.68A5.71,5.71,0,0,0,254,414.26Zm1.09-2.1c-.11,0-.31.16-.3.27,0,.37,1.25,1,2.52,1.44a3.58,3.58,0,0,0-1.48-1.74.83.83,0,0,0-.34-.07A.88.88,0,0,0,255.13,412.16Z" style="fill:#7E57C2"></path><path d="M267.34,413.4c0-.66-8.54,0-8.54,0s-5.18,5.17-10.26,6.38-2.2,4.11,3.49,4l14.09-.16C270.17,423.57,267.6,420.3,267.34,413.4Z" style="fill:#7E57C2"></path><path d="M267.34,413.4c0-.66-8.54,0-8.54,0s-5.18,5.17-10.26,6.38-2.2,4.11,3.49,4l14.09-.16C270.17,423.57,267.6,420.3,267.34,413.4Z" style="fill:#fff;opacity:0.30000000000000004"></path><path d="M225.67,346.78c3.11,5.94,6.24,12.34,9.24,18.73,4,8.44,7.66,16.9,10.81,24.46,2.25,5.4,5.19,12.21,6.74,16.33a15.87,15.87,0,0,0,9-3.66c-1.15-7.42-4.24-26.67-10.08-43.61-3.07-8.92-6.89-17.71-11.6-24.87,22-54.51,17.77-75.32,17.77-75.32l-23.38-1.72s-4.22,20.43-7.76,41.4h0c-1.84,11-3.49,22.13-4.25,30.56v.08A31.73,31.73,0,0,0,225.67,346.78Z" style="fill:#263238"></path><path d="M246,317.94c3.27-9.28,5.68-17.33,7.42-24.24-1.32-5.49-3.29-10.22-6.09-13.11C247.28,280.59,242.62,295.63,246,317.94Z" style="opacity:0.2"></path><path d="M245.72,390c2.25,5.4,5.19,12.21,6.74,16.33a15.87,15.87,0,0,0,9-3.66c-1.15-7.42-4.24-26.67-10.08-43.61C249.37,368.1,247.07,379.58,245.72,390Z" style="opacity:0.2"></path><path d="M243.59,254.93s6.82,50.6,10.73,74.95c4.1,25.58,4.62,66.61,3.6,83.34,1.49.83,6.94,1.84,9.88.95,0,0,13.9-51.72,4.67-81.76,8.41-59.17-3.76-73.66-3.76-73.66Z" style="fill:#263238"></path><path d="M242.48,213.17c-9.32,2.24-25,5.7-34,1.56-10.6-6-1.73-17.09,4.15-22.61a96.92,96.92,0,0,1,13.29-10.63,2.71,2.71,0,0,1,3.42,4.17c-3.68,3.89-7.36,7.93-10.62,12-2.13,2.77-4.51,5.72-5.41,8.8-.14.63,0,.58-.06.1a2.06,2.06,0,0,0-.47-.85s0,0,.08,0c3.58.87,7.57.26,11.43-.18,5.1-.71,10.43-1.78,15.47-2.93,7-1.52,9.61,8.51,2.7,10.56Z" style="fill:#e8bcbd"></path><path d="M245.16,202.15c-5.44-.14-27.79,3.32-27.79,3.32l2.15,12,15.91-.63Z" style="fill:#7E57C2"></path><path d="M245.17,202.15,238,213l-2.56,3.88-4.56.21-11.36.42-2.15-12S239.72,202,245.17,202.15Z" style="fill:#fff;opacity:0.7000000000000001"></path><path d="M238,213l-2.56,3.88-4.56.21a10.5,10.5,0,0,1,7.62-7.25C238.62,210.24,237.92,212.58,238,213Z" style="opacity:0.2"></path><path d="M224.93,183.47l1.1-8.66,4.09-6,3.25,5.42L232.25,178s1.23,4.91-2.74,7.57Z" style="fill:#e8bcbd"></path><path d="M233.71,246.07c-.36-7.34-.51-12.49-.53-17.71a97.56,97.56,0,0,1,.51-13.33c.37-5.75,4.88-12.25,10.68-12.85,1.61-.17,3.29-.32,4.9-.41a105.22,105.22,0,0,1,14.85.51c1.41.11,2.78.27,4.07.45a7.62,7.62,0,0,1,6.18,10.13c-4.69,14.64-6.77,24.15-7.45,31.76.84,2.33,5.24,14.93,3.44,16.35-2,1.58-35,2.76-37.6,0C230.77,258.83,232.73,249.94,233.71,246.07Z" style="fill:#7E57C2"></path><path d="M274.37,212.86c-.85,2.66-1.62,5.15-2.3,7.49-.09.3-.17.59-.27.88-.32,1.16-.64,2.28-.94,3.36-.74,2.69-1.35,5.17-1.86,7.46a94.25,94.25,0,0,0-2.08,12.58c.84,2.33,5.24,14.92,3.44,16.35-2,1.57-35,2.75-37.6,0-2-2.14,0-11,1-14.91-.36-7.34-.52-12.49-.54-17.71A96.73,96.73,0,0,1,233.7,215c.37-5.76,4.87-12.26,10.68-12.86,1.6-.18,3.28-.33,4.89-.41a103.56,103.56,0,0,1,14.84.51c1.41.11,2.79.27,4.07.44A7.64,7.64,0,0,1,274.37,212.86Z" style="fill:#fff;opacity:0.7000000000000001"></path><path d="M271.8,221.23c-.32,1.16-.64,2.28-.94,3.36-3.14-1.7-1.78-6.73-1.78-6.73.72-1.71,0-2.63,1.32-2.39A47,47,0,0,0,271.8,221.23Z" style="opacity:0.2"></path><path d="M272.18,250.17l2,8.5-1.72,7.05-4.94-3.94-.27-3.88s-2.87-4.16-.1-8Z" style="fill:#e8bcbd"></path><path d="M274.45,205.25c7.5,5,23.86,16.63,19.94,27.2-3.64,9-15.67,16.42-23.8,21a2.71,2.71,0,0,1-3-4.47c5.9-5.43,12.28-10.77,16.66-17.43a5.43,5.43,0,0,0,.95-2.38c0,.09,0,0-.14-.18-1.21-2.26-3.45-4.31-5.62-6.25a135.78,135.78,0,0,0-11-8.42c-5.62-4.21,0-12.63,6.05-9.06Z" style="fill:#e8bcbd"></path><path d="M268.19,202.73c7.8,1,19.37,9.29,23.86,16.3l-9.7,8.26s-8.35-5.39-16.26-7.81A19.62,19.62,0,0,1,263.58,209C264,203.31,268.19,202.73,268.19,202.73Z" style="fill:#7E57C2"></path><path d="M268.19,202.73c7.8,1,19.37,9.29,23.86,16.3l-9.7,8.26s-8.35-5.39-16.26-7.81A19.62,19.62,0,0,1,263.58,209C264,203.31,268.19,202.73,268.19,202.73Z" style="fill:#fff;opacity:0.7000000000000001"></path><path d="M239.35,210.58s.21-8.89,11.12-10.17,12.25,2.63,11.44,7.82a32.47,32.47,0,0,0-5.32-1.82c-2.62-.61-9.94,7.81-9.94,7.81s-3.33-6.44-3.9-7S239.35,210.58,239.35,210.58Z" style="fill:#7E57C2"></path><path d="M231.06,181.1c2.1,4.74,4.94,6.64,4.54,13.56s1.12,8.8,14.11,6.64,16.53-6,16.38-11.78-2.93-7-5.5-10.45-3.15-11.76-13.86-11.12S227.8,173.74,231.06,181.1Z" style="fill:#263238"></path><path d="M251.19,187.34c.66,4.9,2.6,13.59,6.7,15.32,0,0-4.43,1.13-11,10.34a24.64,24.64,0,0,1-3.12-7.67c4.51-3.28,3.53-3.88,1.48-7.05Z" style="fill:#e8bcbd"></path><path d="M248.78,191.8l-3.5,6.47a15,15,0,0,1,1.26,2.33c1.78-1.07,3.65-4.28,3.16-6.39A7.31,7.31,0,0,0,248.78,191.8Z" style="opacity:0.2"></path><path d="M253.39,178.65c.38,7.84.7,11.14-2.72,15.76-5.16,7-14.69,6.2-17.36-1.25-2.4-6.71-2.61-18.41,4.53-22.73A10.05,10.05,0,0,1,253.39,178.65Z" style="fill:#e8bcbd"></path><path d="M238.6,184.28a19.47,19.47,0,0,1-1.88,4.56,2.64,2.64,0,0,0,2.3.07Z" style="fill:#d4827d"></path><path d="M256.62,184.63a6.32,6.32,0,0,1-3.35,3.46c-2,.8-3.13-1.11-2.72-3.26.37-1.93,1.84-4.68,3.9-4.56S257.41,182.67,256.62,184.63Z" style="fill:#e8bcbd"></path><path d="M235.74,179.29a.35.35,0,0,1,.28,0,.38.38,0,0,1,.13.52,4.06,4.06,0,0,1-2.88,2.12.35.35,0,0,1-.39-.35.41.41,0,0,1,.36-.42,3.24,3.24,0,0,0,2.26-1.7A.46.46,0,0,1,235.74,179.29Z" style="fill:#263238"></path><path d="M241.12,178.64a.3.3,0,0,0-.25.12.38.38,0,0,0,.06.53,4,4,0,0,0,3.44,1,.35.35,0,0,0,.25-.46.42.42,0,0,0-.49-.27,3.26,3.26,0,0,1-2.72-.8A.4.4,0,0,0,241.12,178.64Z" style="fill:#263238"></path><path d="M244.34,182.41a1.42,1.42,0,0,1,.07.22c.14.65-.06,1.27-.46,1.38s-.85-.3-1-.94a1.45,1.45,0,0,1,0-.5h0c0-.43.2-.79.5-.87S244.15,181.9,244.34,182.41Z" style="fill:#263238"></path><path d="M243.68,181.74H242.1S243.14,182.72,243.68,181.74Z" style="fill:#263238"></path><path d="M245.71,192.07c-1.15.54-4.39,1.22-4.28,1.49a2.42,2.42,0,0,0-.3-.51h0a2,2,0,0,0-2-.95c-.61-.25,4.17-4.9,6.55-1.26C246,191.44,246,191.83,245.71,192.07Z" style="fill:#263238"></path><path d="M245.71,192.07c-1.15.54-4.39,1.22-4.28,1.49a2.42,2.42,0,0,0-.3-.51h0A2.82,2.82,0,0,1,245.71,192.07Z" style="fill:#a02724"></path><path d="M244.29,185c-1.12,0-1.66-1.32-1.66-1.34a.13.13,0,0,1,.07-.17.14.14,0,0,1,.17.08c0,.05.57,1.38,1.68,1.14a.13.13,0,1,1,.06.25A1.27,1.27,0,0,1,244.29,185Z" style="opacity:0.2"></path><path d="M235.43,184l-1.69-.23S234.71,184.94,235.43,184Z" style="fill:#263238"></path><path d="M234.54,183.85a2.25,2.25,0,0,1,3.14-.4,2.42,2.42,0,0,0-2.48.76Z" style="fill:#263238"></path><path d="M235.91,185.69a.13.13,0,0,1-.12-.08.13.13,0,0,1,.08-.17,2.67,2.67,0,0,0,1.68-1.6.13.13,0,0,1,.16-.09.14.14,0,0,1,.1.16,2.92,2.92,0,0,1-1.85,1.77Z" style="opacity:0.2"></path><path d="M241.29,171.83s3,11.21,10.25,13.67,6.88,10.12,4.24,11.7c0,0,6,1,7.48-4.66s-2.77-10.71-3.84-18.65S246.8,165,239.9,166.76s-11.67,5.76-8.84,14.34C231.06,181.1,232.16,172.46,241.29,171.83Z" style="fill:#263238"></path><path d="M320,295.77a86.83,86.83,0,0,1-16.64-2c-17.24-3.38-30.94-7.53-43.09-13.08-15-6.86-27.43-15.87-36.86-26.78-5.24-6-8.9-12.9-12.45-19.52-5.06-9.43-9.83-18.34-18.63-24.36-16.8-11.5-37.67-12.64-52.22-11.57-6.62.49-28.67,3.32-34.5,19.32L98,215.05c5-13.84,20.54-23,41.43-24.56,15.82-1.16,38.61.14,57.33,12.95,10.41,7.12,15.87,17.32,21.16,27.18,3.49,6.53,6.8,12.69,11.45,18.07,8.67,10,20.16,18.35,34.13,24.73,11.57,5.28,24.7,9.26,41.31,12.51,7.26,1.42,15.63,2.78,23.16.94a20,20,0,0,0,14.08-12.4,14,14,0,0,0-2.5-13.81l6.27-5a22,22,0,0,1,3.8,21.38,27.85,27.85,0,0,1-19.74,17.57A41.85,41.85,0,0,1,320,295.77Z" style="fill:#7E57C2"></path><path d="M265.53,307.62c-2.12-17.28-16.76-32.69-34.81-36.64a41.5,41.5,0,0,0-24.24,1.62l2.94,7.44A34,34,0,0,1,229,278.79c14.84,3.25,26.86,15.78,28.58,29.8,1.05,8.5-1.36,17.68-6.77,25.84-9.44,14.24-25.71,22.41-37.14,27.32-41.59,17.87-84.33,21.14-115.79,9.12l3-7.66-22.48,4.61,13.44,18.6L95,378.33c13.37,5.11,28.6,7.64,44.85,7.64,24.33,0,50.94-5.67,77-16.87,12.37-5.31,30-14.23,40.65-30.25C264,329.1,266.81,318,265.53,307.62Z" style="fill:#263238"></path><path d="M265.53,307.62c-2.12-17.28-16.76-32.69-34.81-36.64a41.5,41.5,0,0,0-24.24,1.62l2.94,7.44A34,34,0,0,1,229,278.79c14.84,3.25,26.86,15.78,28.58,29.8,1.05,8.5-1.36,17.68-6.77,25.84-9.44,14.24-25.71,22.41-37.14,27.32-41.59,17.87-84.33,21.14-115.79,9.12l3-7.66-22.48,4.61,13.44,18.6L95,378.33c13.37,5.11,28.6,7.64,44.85,7.64,24.33,0,50.94-5.67,77-16.87,12.37-5.31,30-14.23,40.65-30.25C264,329.1,266.81,318,265.53,307.62Z" style="fill:#fff;opacity:0.2"></path></g><g id="freepik--Lines--inject-65"><polygon points="253.22 157.38 249.85 132.17 256.6 132.17 253.22 157.38 253.22 157.38" style="fill:#7E57C2"></polygon><polygon points="257.89 158.83 269 129.6 275.01 132.66 257.89 158.83 257.89 158.83" style="fill:#7E57C2"></polygon><polygon points="261.39 162.24 278.37 145.74 282.34 151.2 261.39 162.24 261.39 162.24" style="fill:#7E57C2"></polygon></g></svg>
