<svg width="374" height="66" viewBox="0 0 374 66" fill="none" xmlns="http://www.w3.org/2000/svg">
<g filter="url(#filter0_dd_6_127)">
<rect x="3" y="3" width="368" height="58" rx="10" fill="white"/>
<rect width="24" height="24" transform="translate(73 20)" fill="white"/>
<path fill-rule="evenodd" clip-rule="evenodd" d="M96.04 32.2613C96.04 31.4459 95.9668 30.6618 95.8309 29.9091H85V34.3575H91.1891C90.9225 35.795 90.1123 37.0129 88.8943 37.8284V40.7138H92.6109C94.7855 38.7118 96.04 35.7636 96.04 32.2613Z" fill="#4285F4"/>
<path fill-rule="evenodd" clip-rule="evenodd" d="M84.9999 43.4998C88.1049 43.4998 90.7081 42.47 92.6108 40.7137L88.8943 37.8282C87.8645 38.5182 86.5472 38.9259 84.9999 38.9259C82.0047 38.9259 79.4695 36.903 78.5652 34.1848H74.7231V37.1644C76.6154 40.9228 80.5045 43.4998 84.9999 43.4998Z" fill="#34A853"/>
<path fill-rule="evenodd" clip-rule="evenodd" d="M78.5652 34.1851C78.3352 33.4951 78.2045 32.7581 78.2045 32.0001C78.2045 31.2422 78.3352 30.5051 78.5652 29.8151V26.8356H74.7232C73.9443 28.3881 73.5 30.1444 73.5 32.0001C73.5 33.8558 73.9443 35.6122 74.7232 37.1647L78.5652 34.1851Z" fill="#FBBC05"/>
<path fill-rule="evenodd" clip-rule="evenodd" d="M84.9999 25.0739C86.6883 25.0739 88.2043 25.6541 89.3961 26.7936L92.6945 23.4952C90.7029 21.6395 88.0997 20.5 84.9999 20.5C80.5045 20.5 76.6154 23.077 74.7231 26.8355L78.5652 29.815C79.4695 27.0968 82.0047 25.0739 84.9999 25.0739Z" fill="#EA4335"/>
<path d="M120.877 34.3379C120.877 33.7129 120.656 33.2311 120.213 32.8926C119.777 32.554 118.986 32.2122 117.84 31.8672C116.694 31.5221 115.783 31.138 115.105 30.7148C113.81 29.901 113.162 28.8398 113.162 27.5312C113.162 26.3854 113.628 25.4414 114.559 24.6992C115.496 23.957 116.71 23.5859 118.201 23.5859C119.191 23.5859 120.073 23.7682 120.848 24.1328C121.622 24.4974 122.231 25.0182 122.674 25.6953C123.117 26.3659 123.338 27.1113 123.338 27.9316H120.877C120.877 27.1895 120.643 26.61 120.174 26.1934C119.712 25.7702 119.048 25.5586 118.182 25.5586C117.374 25.5586 116.746 25.7311 116.297 26.0762C115.854 26.4212 115.633 26.903 115.633 27.5215C115.633 28.0423 115.874 28.4785 116.355 28.8301C116.837 29.1751 117.632 29.5137 118.738 29.8457C119.845 30.1712 120.734 30.5456 121.404 30.9688C122.075 31.3854 122.566 31.8672 122.879 32.4141C123.191 32.9544 123.348 33.5892 123.348 34.3184C123.348 35.5033 122.892 36.4473 121.98 37.1504C121.076 37.847 119.845 38.1953 118.289 38.1953C117.26 38.1953 116.313 38.0065 115.447 37.6289C114.588 37.2448 113.917 36.7174 113.436 36.0469C112.96 35.3763 112.723 34.5951 112.723 33.7031H115.193C115.193 34.5104 115.46 35.1354 115.994 35.5781C116.528 36.0208 117.293 36.2422 118.289 36.2422C119.148 36.2422 119.793 36.0697 120.223 35.7246C120.659 35.373 120.877 34.9108 120.877 34.3379ZM127.811 38H125.438V27.4336H127.811V38ZM125.291 24.6895C125.291 24.3249 125.405 24.0221 125.633 23.7812C125.867 23.5404 126.199 23.4199 126.629 23.4199C127.059 23.4199 127.391 23.5404 127.625 23.7812C127.859 24.0221 127.977 24.3249 127.977 24.6895C127.977 25.0475 127.859 25.347 127.625 25.5879C127.391 25.8223 127.059 25.9395 126.629 25.9395C126.199 25.9395 125.867 25.8223 125.633 25.5879C125.405 25.347 125.291 25.0475 125.291 24.6895ZM129.988 32.6387C129.988 30.998 130.372 29.6895 131.141 28.7129C131.915 27.7298 132.941 27.2383 134.217 27.2383C135.421 27.2383 136.368 27.6582 137.059 28.498L137.166 27.4336H139.305V37.6777C139.305 39.0645 138.872 40.1582 138.006 40.959C137.146 41.7598 135.984 42.1602 134.52 42.1602C133.745 42.1602 132.986 41.9974 132.244 41.6719C131.508 41.3529 130.949 40.9329 130.564 40.4121L131.688 38.9863C132.417 39.8522 133.315 40.2852 134.383 40.2852C135.171 40.2852 135.792 40.0703 136.248 39.6406C136.704 39.2174 136.932 38.5924 136.932 37.7656V37.0527C136.248 37.8145 135.337 38.1953 134.197 38.1953C132.96 38.1953 131.948 37.7038 131.16 36.7207C130.379 35.7376 129.988 34.377 129.988 32.6387ZM132.352 32.8438C132.352 33.9049 132.566 34.7415 132.996 35.3535C133.432 35.959 134.035 36.2617 134.803 36.2617C135.76 36.2617 136.469 35.8516 136.932 35.0312V30.3828C136.482 29.582 135.779 29.1816 134.822 29.1816C134.041 29.1816 133.432 29.4909 132.996 30.1094C132.566 30.7279 132.352 31.6393 132.352 32.8438ZM143.953 27.4336L144.021 28.6543C144.803 27.7103 145.828 27.2383 147.098 27.2383C149.298 27.2383 150.418 28.498 150.457 31.0176V38H148.084V31.1543C148.084 30.4837 147.938 29.9889 147.645 29.6699C147.358 29.3444 146.886 29.1816 146.229 29.1816C145.271 29.1816 144.559 29.6146 144.09 30.4805V38H141.717V27.4336H143.953ZM160.701 38H158.24V23.7812H160.701V38ZM165.711 27.4336L165.779 28.6543C166.561 27.7103 167.586 27.2383 168.855 27.2383C171.056 27.2383 172.176 28.498 172.215 31.0176V38H169.842V31.1543C169.842 30.4837 169.695 29.9889 169.402 29.6699C169.116 29.3444 168.644 29.1816 167.986 29.1816C167.029 29.1816 166.316 29.6146 165.848 30.4805V38H163.475V27.4336H165.711ZM188.904 34.7285L190.584 27.4336H192.898L190.018 38H188.064L185.799 30.7441L183.572 38H181.619L178.729 27.4336H181.043L182.752 34.6504L184.92 27.4336H186.707L188.904 34.7285ZM197.01 38H194.637V27.4336H197.01V38ZM194.49 24.6895C194.49 24.3249 194.604 24.0221 194.832 23.7812C195.066 23.5404 195.398 23.4199 195.828 23.4199C196.258 23.4199 196.59 23.5404 196.824 23.7812C197.059 24.0221 197.176 24.3249 197.176 24.6895C197.176 25.0475 197.059 25.347 196.824 25.5879C196.59 25.8223 196.258 25.9395 195.828 25.9395C195.398 25.9395 195.066 25.8223 194.832 25.5879C194.604 25.347 194.49 25.0475 194.49 24.6895ZM202.576 24.8652V27.4336H204.441V29.1914H202.576V35.0898C202.576 35.4935 202.654 35.7865 202.811 35.9688C202.973 36.1445 203.26 36.2324 203.67 36.2324C203.943 36.2324 204.22 36.1999 204.5 36.1348V37.9707C203.96 38.1204 203.439 38.1953 202.938 38.1953C201.115 38.1953 200.203 37.1895 200.203 35.1777V29.1914H198.465V27.4336H200.203V24.8652H202.576ZM208.602 28.5859C209.376 27.6875 210.356 27.2383 211.541 27.2383C213.794 27.2383 214.936 28.5241 214.969 31.0957V38H212.596V31.1836C212.596 30.4544 212.436 29.9401 212.117 29.6406C211.805 29.3346 211.342 29.1816 210.73 29.1816C209.78 29.1816 209.07 29.6048 208.602 30.4512V38H206.229V23H208.602V28.5859ZM233.484 36.1543C232.97 36.8249 232.257 37.3327 231.346 37.6777C230.434 38.0228 229.399 38.1953 228.24 38.1953C227.049 38.1953 225.994 37.9251 225.076 37.3848C224.158 36.8444 223.449 36.0729 222.947 35.0703C222.452 34.0612 222.195 32.8861 222.176 31.5449V30.4316C222.176 28.2832 222.69 26.6068 223.719 25.4023C224.747 24.1914 226.183 23.5859 228.025 23.5859C229.607 23.5859 230.864 23.9766 231.795 24.7578C232.726 25.5391 233.286 26.6654 233.475 28.1367H231.053C230.779 26.4245 229.786 25.5684 228.074 25.5684C226.967 25.5684 226.124 25.9688 225.545 26.7695C224.972 27.5638 224.676 28.7324 224.656 30.2754V31.3691C224.656 32.9056 224.979 34.1003 225.623 34.9531C226.274 35.7995 227.176 36.2227 228.328 36.2227C229.591 36.2227 230.49 35.9362 231.023 35.3633V32.5801H228.094V30.7051H233.484V36.1543ZM235.525 32.6191C235.525 31.584 235.73 30.653 236.141 29.8262C236.551 28.9928 237.127 28.3548 237.869 27.9121C238.611 27.4629 239.464 27.2383 240.428 27.2383C241.854 27.2383 243.009 27.6973 243.895 28.6152C244.786 29.5332 245.268 30.7507 245.34 32.2676L245.35 32.8242C245.35 33.8659 245.148 34.7969 244.744 35.6172C244.347 36.4375 243.774 37.0723 243.025 37.5215C242.283 37.9707 241.424 38.1953 240.447 38.1953C238.956 38.1953 237.762 37.7005 236.863 36.7109C235.971 35.7148 235.525 34.39 235.525 32.7363V32.6191ZM237.898 32.8242C237.898 33.9115 238.123 34.7643 238.572 35.3828C239.021 35.9948 239.646 36.3008 240.447 36.3008C241.248 36.3008 241.87 35.9883 242.312 35.3633C242.762 34.7383 242.986 33.8236 242.986 32.6191C242.986 31.5514 242.755 30.7051 242.293 30.0801C241.837 29.4551 241.215 29.1426 240.428 29.1426C239.653 29.1426 239.038 29.4518 238.582 30.0703C238.126 30.6823 237.898 31.6003 237.898 32.8242ZM246.912 32.6191C246.912 31.584 247.117 30.653 247.527 29.8262C247.938 28.9928 248.514 28.3548 249.256 27.9121C249.998 27.4629 250.851 27.2383 251.814 27.2383C253.24 27.2383 254.396 27.6973 255.281 28.6152C256.173 29.5332 256.655 30.7507 256.727 32.2676L256.736 32.8242C256.736 33.8659 256.535 34.7969 256.131 35.6172C255.734 36.4375 255.161 37.0723 254.412 37.5215C253.67 37.9707 252.811 38.1953 251.834 38.1953C250.343 38.1953 249.148 37.7005 248.25 36.7109C247.358 35.7148 246.912 34.39 246.912 32.7363V32.6191ZM249.285 32.8242C249.285 33.9115 249.51 34.7643 249.959 35.3828C250.408 35.9948 251.033 36.3008 251.834 36.3008C252.635 36.3008 253.257 35.9883 253.699 35.3633C254.148 34.7383 254.373 33.8236 254.373 32.6191C254.373 31.5514 254.142 30.7051 253.68 30.0801C253.224 29.4551 252.602 29.1426 251.814 29.1426C251.04 29.1426 250.424 29.4518 249.969 30.0703C249.513 30.6823 249.285 31.6003 249.285 32.8242ZM258.328 32.6387C258.328 30.998 258.712 29.6895 259.48 28.7129C260.255 27.7298 261.281 27.2383 262.557 27.2383C263.761 27.2383 264.708 27.6582 265.398 28.498L265.506 27.4336H267.645V37.6777C267.645 39.0645 267.212 40.1582 266.346 40.959C265.486 41.7598 264.324 42.1602 262.859 42.1602C262.085 42.1602 261.326 41.9974 260.584 41.6719C259.848 41.3529 259.288 40.9329 258.904 40.4121L260.027 38.9863C260.757 39.8522 261.655 40.2852 262.723 40.2852C263.51 40.2852 264.132 40.0703 264.588 39.6406C265.044 39.2174 265.271 38.5924 265.271 37.7656V37.0527C264.588 37.8145 263.676 38.1953 262.537 38.1953C261.3 38.1953 260.288 37.7038 259.5 36.7207C258.719 35.7376 258.328 34.377 258.328 32.6387ZM260.691 32.8438C260.691 33.9049 260.906 34.7415 261.336 35.3535C261.772 35.959 262.374 36.2617 263.143 36.2617C264.1 36.2617 264.809 35.8516 265.271 35.0312V30.3828C264.822 29.582 264.119 29.1816 263.162 29.1816C262.381 29.1816 261.772 29.4909 261.336 30.1094C260.906 30.7279 260.691 31.6393 260.691 32.8438ZM272.615 38H270.242V23H272.615V38ZM279.861 38.1953C278.357 38.1953 277.137 37.7233 276.199 36.7793C275.268 35.8288 274.803 34.5658 274.803 32.9902V32.6973C274.803 31.6426 275.005 30.7018 275.408 29.875C275.818 29.0417 276.391 28.3939 277.127 27.9316C277.863 27.4694 278.683 27.2383 279.588 27.2383C281.027 27.2383 282.137 27.6973 282.918 28.6152C283.706 29.5332 284.1 30.832 284.1 32.5117V33.4688H277.195C277.267 34.3411 277.557 35.0312 278.064 35.5391C278.579 36.0469 279.223 36.3008 279.998 36.3008C281.085 36.3008 281.971 35.8613 282.654 34.9824L283.934 36.2031C283.51 36.8346 282.944 37.3262 282.234 37.6777C281.531 38.0228 280.74 38.1953 279.861 38.1953ZM279.578 29.1426C278.927 29.1426 278.4 29.3704 277.996 29.8262C277.599 30.2819 277.345 30.9167 277.234 31.7305H281.756V31.5547C281.704 30.7604 281.492 30.1615 281.121 29.7578C280.75 29.3477 280.236 29.1426 279.578 29.1426Z" fill="black" fill-opacity="0.54"/>
</g>
<defs>
<filter id="filter0_dd_6_127" x="0" y="0" width="374" height="66" filterUnits="userSpaceOnUse" color-interpolation-filters="sRGB">
<feFlood flood-opacity="0" result="BackgroundImageFix"/>
<feColorMatrix in="SourceAlpha" type="matrix" values="0 0 0 0 0 0 0 0 0 0 0 0 0 0 0 0 0 0 127 0" result="hardAlpha"/>
<feOffset dy="2"/>
<feGaussianBlur stdDeviation="1.5"/>
<feColorMatrix type="matrix" values="0 0 0 0 0 0 0 0 0 0 0 0 0 0 0 0 0 0 0.168 0"/>
<feBlend mode="normal" in2="BackgroundImageFix" result="effect1_dropShadow_6_127"/>
<feColorMatrix in="SourceAlpha" type="matrix" values="0 0 0 0 0 0 0 0 0 0 0 0 0 0 0 0 0 0 127 0" result="hardAlpha"/>
<feOffset/>
<feGaussianBlur stdDeviation="1.5"/>
<feColorMatrix type="matrix" values="0 0 0 0 0 0 0 0 0 0 0 0 0 0 0 0 0 0 0.084 0"/>
<feBlend mode="normal" in2="effect1_dropShadow_6_127" result="effect2_dropShadow_6_127"/>
<feBlend mode="normal" in="SourceGraphic" in2="effect2_dropShadow_6_127" result="shape"/>
</filter>
</defs>
</svg>
