<svg width="177" height="176" xmlns="http://www.w3.org/2000/svg" xmlns:xlink="http://www.w3.org/1999/xlink" xml:space="preserve" overflow="hidden"><defs><clipPath id="clip0"><rect x="991" y="159" width="177" height="176"/></clipPath></defs><g clip-path="url(#clip0)" transform="translate(-991 -159)"><path d="M81.8682 40.2019C98.5248 39.6282 111.334 32.8099 127.501 41.5184 141.022 48.8013 143.915 60.991 141.62 75.8032 135.96 112.309 100.746 124.091 69.5024 113.084 39.9098 102.654 22.528 73.8461 28.6246 43.025 30.9302 31.3843 41.9267 14.6538 56.225 21.8733 66.711 27.1709 67.6755 40.6877 81.8682 40.2019Z" fill="#FF4040" transform="matrix(1.00568 0 0 1 991 159)"/><path d="M81.8682 40.2019C98.5248 39.6282 111.334 32.8099 127.501 41.5184 141.022 48.8013 143.915 60.991 141.62 75.8032 135.96 112.309 100.746 124.091 69.5024 113.084 39.9098 102.654 22.528 73.8461 28.6246 43.025 30.9302 31.3843 41.9267 14.6538 56.225 21.8733 66.711 27.1709 67.6755 40.6877 81.8682 40.2019Z" fill="#FFFFFF" fill-opacity="0.9" transform="matrix(1.00568 0 0 1 991 159)"/><path d="M156.249 146.516C156.249 148.717 125.693 150.501 88 150.501 50.307 150.501 19.7507 148.717 19.7507 146.516 19.7507 144.316 50.307 142.532 88 142.532 125.693 142.532 156.249 144.316 156.249 146.516Z" fill="#F5F5F5" transform="matrix(1.00568 0 0 1 991 159)"/><path d="M65.9014 29.6009C65.9014 36.377 58.0645 41.87 48.3972 41.87 38.7298 41.87 30.8929 36.377 30.8929 29.6009 30.8929 22.8248 38.7298 17.3317 48.3972 17.3317 58.0645 17.3317 65.9014 22.8248 65.9014 29.6009Z" fill="#FF4040" transform="matrix(0.991175 -0.16829 0.169246 0.985576 986.685 167.568)"/><path d="M65.9014 29.6009C65.9014 36.377 58.0645 41.87 48.3972 41.87 38.7298 41.87 30.8929 36.377 30.8929 29.6009 30.8929 22.8248 38.7298 17.3317 48.3972 17.3317 58.0645 17.3317 65.9014 22.8248 65.9014 29.6009Z" fill="#FFFFFF" fill-opacity="0.3" transform="matrix(0.991175 -0.16829 0.169246 0.985576 986.685 167.568)"/><path d="M79.552 29.9728C80.608 32.1517 78.9184 35.1226 75.8067 36.6115 72.695 38.1005 69.3334 37.5338 68.2915 35.3549 67.2496 33.176 68.9286 30.2016 72.0368 28.7162 75.145 27.2307 78.496 27.808 79.552 29.9728Z" fill="#FF4040" transform="matrix(1.00568 0 0 1 991 159)"/><path d="M79.552 29.9728C80.608 32.1517 78.9184 35.1226 75.8067 36.6115 72.695 38.1005 69.3334 37.5338 68.2915 35.3549 67.2496 33.176 68.9286 30.2016 72.0368 28.7162 75.145 27.2307 78.496 27.808 79.552 29.9728Z" fill="#FFFFFF" fill-opacity="0.5" transform="matrix(1.00568 0 0 1 991 159)"/><path d="M85.1171 38.5933C85.4198 39.8992 84.1491 41.3072 82.2835 41.7366 80.4179 42.1661 78.6614 41.455 78.3622 40.1456 78.063 38.8362 79.3302 37.4317 81.1782 37.0022 83.0262 36.5728 84.832 37.2838 85.1171 38.5933Z" fill="#FF4040" transform="matrix(1.00568 0 0 1 991 159)"/><path d="M85.1171 38.5933C85.4198 39.8992 84.1491 41.3072 82.2835 41.7366 80.4179 42.1661 78.6614 41.455 78.3622 40.1456 78.063 38.8362 79.3302 37.4317 81.1782 37.0022 83.0262 36.5728 84.832 37.2838 85.1171 38.5933Z" fill="#FFFFFF" fill-opacity="0.6" transform="matrix(1.00568 0 0 1 991 159)"/><path d="M45.0842 39.7373C44.8659 39.7373 44.6477 39.7373 44.433 39.7056 43.8053 39.6876 43.1992 39.4722 42.7011 39.0896 42.4128 38.8348 42.2192 38.4898 42.152 38.111 41.7542 38.111 41.3565 38.0829 40.9552 38.0618 40.0752 38.009 39.1635 37.9104 38.5229 37.319 38.135 36.9519 37.9093 36.445 37.8963 35.911 37.1712 35.7248 36.5686 35.2218 36.256 34.5418 36.0325 33.9492 36.0737 33.2893 36.3686 32.729 35.9828 32.4349 35.6386 32.0903 35.3443 31.7046 34.7207 30.8644 34.396 29.8397 34.4221 28.7936 34.246 28.7114 34.1049 28.5691 34.0243 28.3923 33.8835 28.0403 34.063 27.6461 34.5312 27.2624 34.6262 27.1814 34.7283 27.1005 34.8269 27.023 35.3932 25.7902 36.4647 24.8623 37.7661 24.4781 38.8221 24.1754 39.9238 24.2598 40.9939 24.3443L41.0467 24.3443C41.8275 24.1988 42.6159 24.1013 43.4086 24.0522 43.8525 23.9491 44.3098 23.9159 44.7638 23.9536 45.2214 23.7433 45.6136 23.4123 45.8973 22.9962 46.0402 22.7718 46.1652 22.5364 46.2704 22.2922 46.3795 22.0307 46.5101 21.7787 46.6611 21.5389 47.3158 20.5568 48.5866 19.9971 50.4451 19.8739 52.6486 19.7331 54.4333 20.1133 55.7498 21.0038 56.2471 21.3365 56.6724 21.7664 56.9994 22.2675 57.659 22.3048 58.3116 22.423 58.9424 22.6195 59.833 22.8765 61.9062 23.6579 61.8957 25.3581 61.8559 25.898 61.6933 26.4217 61.4205 26.8893L60.6848 28.4029C60.7225 28.5952 60.7379 28.7913 60.7306 28.9872 60.871 29.0448 61.0076 29.1118 61.1389 29.1878 61.7373 29.5398 62.3568 30.1699 62.3075 30.9478 62.2758 31.4547 61.9555 31.944 61.3747 32.4333 60.6401 33.028 59.8059 33.488 58.9107 33.792 58.6277 34.337 58.2979 34.8564 57.9251 35.3443 57.2035 36.2877 55.9997 37.5056 54.3629 37.9456 53.3276 38.2332 52.2227 38.1265 51.2618 37.6464 50.9485 37.8541 50.6352 38.0371 50.3501 38.192 48.4493 39.2198 46.6928 39.7373 45.0842 39.7373ZM42.4653 38.111C42.5304 38.3986 42.6846 38.6584 42.9053 38.8538 43.3537 39.1941 43.8983 39.3853 44.4611 39.3994 46.1789 39.5542 48.1008 39.0474 50.1776 37.9245 50.417 37.7942 50.6774 37.6464 50.9379 37.4774 50.65 37.2912 50.3927 37.0621 50.1741 36.7981 50.0537 36.6626 49.9657 36.501 49.9171 36.3264 49.456 36.3968 48.9914 36.4496 48.5267 36.4883 47.8027 36.821 47.0381 37.0575 46.2528 37.1923 45.8857 37.4271 45.4907 37.6151 45.0771 37.752 44.2309 38.0093 43.3495 38.1304 42.4653 38.111ZM43.0144 37.0269C42.8197 37.1184 42.6578 37.2669 42.5498 37.4528 42.4903 37.5616 42.4544 37.6812 42.4442 37.8048 43.3034 37.8203 44.1595 37.7017 44.9821 37.4528 45.1264 37.4035 45.2742 37.3472 45.4256 37.2803 44.6132 37.3426 43.7962 37.2567 43.0144 37.0269ZM38.2096 36.0061C38.2427 36.4214 38.43 36.8093 38.7341 37.0938 39.2973 37.6147 40.1421 37.7027 40.9728 37.752 41.3635 37.7731 41.7507 37.7942 42.1344 37.8013 42.1446 37.627 42.1939 37.4574 42.2787 37.305 42.3643 37.1444 42.4846 37.0051 42.6307 36.8966 42.4934 36.8438 42.3597 36.7875 42.2294 36.7242L42.2294 36.7699C42.1597 37.0012 41.9764 37.1804 41.7437 37.2451 41.4265 37.3479 41.0795 37.2916 40.8109 37.0938 40.4786 36.7956 40.2544 36.3957 40.1738 35.9568 39.758 36.0642 39.3286 36.1103 38.8995 36.0941 38.6676 36.0846 38.4366 36.0554 38.2096 36.0061ZM51.5258 37.4493C52.3853 37.8312 53.3512 37.9023 54.2573 37.6499 55.8096 37.2346 56.9606 36.0659 57.6541 35.1613 57.9498 34.7734 58.218 34.3652 58.4566 33.9398 58.0483 34.0666 57.633 34.1757 57.2106 34.2672 56.6181 34.7615 55.9177 35.1089 55.1654 35.281 54.4973 35.4612 53.8176 35.5953 53.1309 35.6822 53.0196 35.8822 52.8965 36.0751 52.7613 36.2595 52.4124 36.7168 51.996 37.118 51.5258 37.4493ZM50.2234 36.2736C50.2635 36.3957 50.3279 36.5084 50.4134 36.6045 50.6401 36.8776 50.9129 37.1089 51.2195 37.2874 51.7123 36.9558 52.1484 36.5467 52.5114 36.0765 52.5958 35.9638 52.6733 35.8477 52.7472 35.7245L52.0819 35.7878C51.4768 36.0012 50.8552 36.1638 50.2234 36.2736ZM40.48 35.8688C40.5458 36.2451 40.7324 36.59 41.0115 36.8509 41.1998 36.9839 41.4392 37.022 41.6592 36.953 41.7915 36.916 41.8972 36.8157 41.9408 36.6854 41.9517 36.6499 41.9588 36.6133 41.9619 36.5763 41.6427 36.4031 41.3417 36.1979 41.0643 35.9638 40.9763 35.8899 40.8918 35.8125 40.8109 35.735 40.6912 35.7843 40.5786 35.8266 40.48 35.8688ZM43.6058 36.8403C44.4565 37.0065 45.3306 37.0195 46.1859 36.879 46.3077 36.7974 46.4253 36.7094 46.5379 36.615L46.4288 36.615C45.6614 36.6538 44.8694 36.6925 44.1056 36.7664 43.9328 36.7805 43.7613 36.8051 43.5917 36.8403ZM47.0202 36.5904 46.8618 36.7418C47.0694 36.689 47.2806 36.6326 47.4848 36.5658ZM42.2787 36.3862C42.5205 36.5059 42.7712 36.6073 43.0285 36.689 43.3678 36.5626 43.7233 36.4855 44.0845 36.4602 44.8518 36.3862 45.6509 36.3475 46.4218 36.3123L46.897 36.2877C47.0254 36.1455 47.1434 35.9938 47.249 35.8336 45.7614 35.779 44.2717 35.8178 42.7891 35.9498 42.6212 35.942 42.4572 36.0033 42.335 36.1187 42.2875 36.1997 42.2629 36.2923 42.2646 36.3862ZM47.6115 35.8406C47.5211 35.9881 47.4225 36.1303 47.3158 36.2666 47.696 36.2454 48.0762 36.2208 48.4528 36.1856 48.671 36.087 48.8787 35.9814 49.0829 35.8653 48.6323 35.8653 48.1853 35.8653 47.7382 35.8442ZM41.0995 35.5837 41.2614 35.7245C41.4807 35.9128 41.7162 36.0811 41.9654 36.2278 41.976 36.1272 42.0112 36.0304 42.0675 35.9462 42.234 35.7481 42.4811 35.6354 42.7398 35.64 44.2943 35.5059 45.8554 35.4682 47.4144 35.5274 47.4883 35.3887 47.5496 35.244 47.5974 35.0944 47.2683 35.198 46.9279 35.2605 46.5837 35.281 44.9951 35.4232 43.3942 35.3331 41.8317 35.0134 41.6053 35.2313 41.3551 35.4225 41.0854 35.5837ZM49.6707 35.8688 49.6179 35.904 49.2941 36.1011C49.5088 36.0765 49.72 36.0448 49.9312 36.0096 49.9428 35.961 49.9594 35.9139 49.9805 35.8688ZM50.3747 35.8688C50.3487 35.8938 50.3261 35.9223 50.3078 35.9533L50.7584 35.8618ZM38.2342 35.6928C38.4652 35.7474 38.701 35.779 38.9382 35.7878 39.3402 35.804 39.7422 35.7611 40.1315 35.6611 40.0576 35.3338 39.9837 34.9571 39.9203 34.5805L39.857 34.4714C39.505 34.3517 39.1776 34.225 38.8432 34.0842 38.5004 34.5335 38.2906 35.0702 38.2378 35.633 38.2378 35.633 38.2026 35.6682 38.2026 35.6893ZM36.608 32.912C36.3711 33.3832 36.3415 33.9319 36.527 34.4256 36.791 35.0006 37.294 35.4306 37.9034 35.6013 37.9551 35.0069 38.1695 34.4382 38.5229 33.9574 38.368 33.8906 38.2202 33.8202 38.0688 33.7462 37.5591 33.5099 37.0705 33.2308 36.608 32.912ZM40.3181 35.2C40.3427 35.3232 40.3709 35.4429 40.3955 35.552L40.5645 35.4851C40.48 35.4042 40.3955 35.3091 40.3181 35.2ZM47.7558 35.5274C48.3542 35.5274 48.9597 35.552 49.5651 35.552 50.1868 35.137 50.7686 34.6657 51.304 34.144 51.033 34.0942 50.7647 34.0284 50.5014 33.9469 49.9432 33.7796 49.4131 33.5305 48.928 33.2077 48.9157 33.8485 48.6175 34.4503 48.1149 34.848L47.967 34.9466C47.9156 35.1546 47.8449 35.3573 47.7558 35.552ZM51.6912 34.2003C51.2016 34.6927 50.6732 35.1447 50.1107 35.552L50.2163 35.552C50.4258 35.3897 50.6651 35.2704 50.9203 35.2 51.6937 34.9626 52.4814 34.7757 53.2787 34.6403 53.3667 34.4256 53.4477 34.2003 53.5286 33.968 52.9489 34.2121 52.3139 34.2949 51.6912 34.2074ZM53.1309 34.9712C52.411 35.098 51.6996 35.2697 51.0013 35.4851L50.857 35.5379C51.2442 35.5379 51.6278 35.5062 52.015 35.4781 52.3977 35.338 52.7694 35.1696 53.1274 34.9747ZM40.2829 34.6192C40.4501 34.8834 40.6423 35.1309 40.8566 35.3584 41.0721 35.2384 41.2752 35.0969 41.4621 34.936 41.0643 34.848 40.6701 34.7354 40.2829 34.6157ZM53.3702 35.2 53.2998 35.3478C53.9004 35.2676 54.4952 35.1502 55.081 34.9958 55.5731 34.8697 56.0465 34.6792 56.489 34.4291 55.9187 34.5347 55.3485 34.6262 54.7782 34.7178L53.937 34.8515 53.7504 34.9782C53.6272 35.0486 53.504 35.1261 53.3702 35.2ZM42.0886 34.7494C43.56 35.0322 45.0634 35.108 46.5555 34.9747 46.9466 34.9581 47.3313 34.8723 47.6925 34.7213 47.7657 34.226 47.7787 33.7237 47.7312 33.2253 47.7312 33.0563 47.7312 32.8733 47.7066 32.7184 47.4422 32.9613 47.1416 33.162 46.816 33.3133 45.7688 33.7593 44.5815 33.7402 43.5494 33.2605 43.4227 33.243 43.2967 33.2183 43.1728 33.1866L43.0496 33.4013C42.7789 33.8839 42.4565 34.3359 42.0886 34.7494ZM40.1526 34.2496C40.6718 34.4183 41.1995 34.5605 41.7331 34.6755 42.1436 34.2453 42.4984 33.7652 42.7891 33.2464L42.8736 33.0986C42.522 32.9744 42.19 32.8002 41.888 32.5811 41.2509 32.6752 40.6303 32.8577 40.0435 33.1232 40.0576 33.5139 40.0998 33.8906 40.1526 34.2496ZM53.8806 33.8589C53.863 33.9011 53.849 33.9469 53.8314 33.9926 53.761 34.1933 53.6941 34.3869 53.6202 34.577L53.8138 34.5453C54.0517 34.3696 54.2678 34.1663 54.4579 33.9398ZM48.0128 32.4122 48.0128 32.5213C48.0128 32.7501 48.0128 32.9789 48.0374 33.2253 48.0726 33.6552 48.0726 34.0872 48.0374 34.5171 48.4419 34.1156 48.6591 33.5625 48.6358 32.993 48.4183 32.8122 48.2265 32.6026 48.0656 32.3699ZM54.824 33.975C54.7015 34.1447 54.5639 34.3026 54.4122 34.4467L54.7325 34.3974C55.528 34.2707 56.3059 34.1475 57.0592 33.9856 57.0803 33.9856 57.0979 33.9469 57.119 33.9258 56.7442 33.995 56.3633 34.028 55.9821 34.0243 55.5949 34.0243 55.2077 34.0102 54.824 33.975ZM39.0192 33.8342 39.6282 34.0701C39.5437 33.88 39.4698 33.6864 39.4029 33.4928 39.2652 33.595 39.1368 33.7093 39.0192 33.8342ZM51.9728 33.9222C52.4093 33.9514 52.8468 33.889 53.2576 33.7392L52.9056 33.6618C52.7085 33.616 52.5219 33.5632 52.3389 33.5104 52.2238 33.6488 52.102 33.7861 51.9728 33.9222ZM48.928 32.831C49.425 33.2029 49.984 33.4841 50.5789 33.6618 50.9006 33.7638 51.2301 33.8379 51.5645 33.8835 51.7194 33.7286 51.8672 33.5667 52.015 33.4048 51.1294 33.1289 50.3223 32.6463 49.6602 31.9968 49.3486 31.6745 49.0864 31.308 48.8822 30.9091L48.8822 30.9091C48.8129 31.0993 48.7316 31.2851 48.6394 31.4653 48.745 31.7609 48.8263 32.0646 48.8822 32.3734 48.9086 32.5246 48.9241 32.6776 48.928 32.831ZM57.6189 33.792 57.5661 33.8624C57.9438 33.7709 58.3099 33.6653 58.6643 33.5456 59.1082 32.6735 59.4317 31.7451 59.6253 30.7859 59.4862 30.8822 59.3391 30.9658 59.1853 31.0358 59.3542 31.6768 59.2416 32.3594 58.8755 32.912 58.5629 33.3336 58.1219 33.6424 57.6189 33.792ZM55.0106 33.6723C55.3309 33.697 55.6547 33.711 55.9786 33.711 56.4647 33.7173 56.949 33.6557 57.4182 33.528 57.4464 33.4787 57.4746 33.4294 57.4992 33.3766 57.7861 32.7345 57.7783 31.9992 57.4781 31.3632 56.9068 31.3449 56.3387 31.2718 55.7814 31.145L55.4787 31.6976C55.3837 31.8701 55.2886 32.0496 55.1901 32.2186 55.2288 32.3516 55.2524 32.4886 55.2605 32.6269 55.2774 32.9942 55.1908 33.3589 55.0106 33.6794ZM36.7523 32.6163C37.2092 32.935 37.6936 33.213 38.199 33.447 38.3715 33.5315 38.551 33.609 38.7165 33.6829 38.8851 33.4911 39.0766 33.3208 39.2867 33.176L39.3114 33.176C39.1375 32.5163 39.084 31.8307 39.153 31.152 38.5862 31.2567 38.0456 31.472 37.5619 31.7856 37.2346 32.0088 36.9586 32.2992 36.7523 32.6374ZM54.127 33.5632 54.6726 33.6301C54.8662 33.3335 54.9634 32.9843 54.9507 32.6304L54.9507 32.6022C54.7276 32.9696 54.4498 33.3008 54.127 33.5843ZM39.695 33.2886C39.7162 33.359 39.7408 33.433 39.7654 33.5034 39.7654 33.4224 39.7654 33.3414 39.7654 33.257ZM52.5888 33.2323 53.0006 33.3414C53.2294 33.3942 53.4582 33.4435 53.7046 33.4858 53.9394 32.8099 54.1668 32.1282 54.3875 31.4406 54.3101 31.3632 54.2326 31.2893 54.1552 31.2259 53.6378 31.937 53.1274 32.6163 52.5782 33.2534ZM60.0019 30.4762C59.833 31.4799 59.5274 32.4557 59.0938 33.3766 59.8474 33.0913 60.55 32.6859 61.1741 32.1763 61.6986 31.7434 61.9661 31.328 61.9907 30.9091 62.033 30.272 61.4944 29.7299 60.9805 29.4342 60.8847 29.3794 60.7862 29.33 60.6848 29.2864 60.6848 29.3322 60.6637 29.3814 60.6496 29.4272 60.5324 29.8375 60.3046 30.2077 59.9914 30.4973ZM57.8195 31.3421C58.086 31.9847 58.0976 32.7048 57.8512 33.3555 58.1624 33.216 58.4316 32.9976 58.6326 32.7219 58.9396 32.256 59.0388 31.6836 58.9072 31.1414 58.777 31.1837 58.6432 31.2224 58.5094 31.2541 58.2796 31.31 58.0452 31.3465 57.809 31.3632ZM44.4963 33.2182C45.2316 33.3913 46.0032 33.3184 46.6928 33.0106 47.0786 32.8307 47.4264 32.5785 47.7171 32.2678 47.7231 32.0897 47.7407 31.9122 47.7699 31.7363 47.7523 31.68 47.7312 31.6237 47.7171 31.5674 47.6956 31.4994 47.6791 31.43 47.6678 31.3597 47.3475 31.4688 47.0237 31.5709 46.6998 31.6624 46.2535 32.3752 45.5668 32.9046 44.7638 33.1549 44.673 33.1885 44.5801 33.2167 44.4858 33.2394ZM54.6058 31.7117C54.4509 32.1974 54.2925 32.6762 54.127 33.1549 54.415 32.8617 54.6624 32.5314 54.8627 32.1728 54.7937 32.0147 54.704 31.8667 54.5952 31.7328ZM49.199 30.7754C49.3814 31.1393 49.619 31.4729 49.903 31.7645 50.5652 32.4072 51.3751 32.8774 52.2614 33.1338 52.8405 32.4591 53.3836 31.7541 53.8877 31.0218 53.7821 30.9514 53.687 30.888 53.6026 30.8387 53.1224 30.7166 52.6641 30.5207 52.2438 30.2579 51.7672 30.1179 51.2758 30.0351 50.7795 30.0115L50.6035 30.103C50.1318 30.3741 49.6637 30.5958 49.1885 30.7965ZM39.4874 31.0746C39.4156 31.7116 39.4574 32.3564 39.6106 32.9789L39.7267 32.9155C39.6919 32.2874 39.7095 31.6575 39.7795 31.0323 39.6704 31.064 39.5754 31.0781 39.4768 31.0957ZM43.6234 32.9366C43.9771 32.9801 44.3358 32.9538 44.6794 32.8592 45.2887 32.6764 45.8255 32.3071 46.2141 31.8032 45.4031 32.0165 44.5801 32.1834 43.7501 32.303L43.6198 32.303 43.3629 32.8064ZM40.1034 30.9936C40.033 31.5775 40.0108 32.1661 40.0365 32.7536 40.5321 32.54 41.0506 32.3841 41.5818 32.289L41.4374 32.1482C41.0904 31.8057 40.8007 31.41 40.5786 30.976ZM42.7187 32.4333C42.8454 32.5178 42.9722 32.5987 43.0989 32.6691 43.1552 32.567 43.208 32.465 43.2608 32.3629L43.0848 32.3875ZM48.2874 32.0813C48.3884 32.2382 48.5063 32.3834 48.6394 32.5142 48.6394 32.4826 48.6394 32.4509 48.6394 32.4192 48.6017 32.2174 48.5535 32.0176 48.495 31.8208ZM34.7318 28.9133C34.7333 29.8476 35.0344 30.7569 35.5907 31.5075 35.8579 31.8604 36.1715 32.1754 36.5235 32.4438 36.7499 32.0789 37.0498 31.7649 37.4035 31.5216 37.9523 31.1657 38.5679 30.9261 39.2128 30.8176 39.2596 30.5382 39.3279 30.2628 39.417 29.9939 37.814 29.8171 36.2359 29.4581 34.7142 28.9238ZM41.1523 30.9232C41.4945 31.3982 41.9024 31.8224 42.3632 32.1834 42.5885 32.1482 42.8173 32.12 43.0461 32.0918L43.4262 32.039C43.5283 31.8349 43.6269 31.6307 43.7254 31.4301L43.8275 31.2224C43.4269 31.1458 43.0468 30.9863 42.7117 30.7542 42.1897 30.8425 41.6631 30.9024 41.1347 30.9338ZM44.1584 31.2506C44.1056 31.3526 44.0563 31.4582 44.0035 31.5638 43.9507 31.6694 43.8662 31.8454 43.7958 31.9898 44.7128 31.8535 45.6206 31.6595 46.5133 31.409 46.9434 30.7127 47.2729 29.9589 47.4918 29.1702L47.615 28.7549C47.8023 28.0734 48.029 27.4035 48.2944 26.7485 48.2557 26.6746 48.2134 26.6006 48.1677 26.5302 47.9259 26.6628 47.6911 26.8073 47.4637 26.9632 47.4355 26.9984 47.4074 27.0371 47.3757 27.0723 47.3757 27.6508 47.262 28.2237 47.0413 28.7584 46.5238 30.0362 45.4502 31.2506 44.1619 31.2506ZM54.7184 31.3667C54.855 31.5126 54.9729 31.6745 55.0704 31.849 55.1232 31.7469 55.1795 31.6483 55.2358 31.5462 55.2922 31.4442 55.3942 31.2506 55.4787 31.1027 55.352 31.1027 55.2253 31.1027 55.0986 31.1027L54.831 31.1027ZM48.0902 31.7187C48.0976 31.7418 48.1068 31.7643 48.1184 31.7856 48.1923 31.6765 48.2627 31.5603 48.3296 31.4336 48.3014 31.3491 48.2698 31.2682 48.2416 31.1837 48.1673 31.3577 48.1131 31.5396 48.0797 31.7258ZM47.7382 29.4131C47.5436 30.0627 47.2792 30.6894 46.9498 31.2822 47.1786 31.2118 47.4038 31.1379 47.6291 31.0605 47.6069 30.6811 47.6682 30.3014 47.8086 29.9482 47.7527 29.7778 47.7242 29.5995 47.7242 29.4202ZM54.3699 31.0253 54.479 31.1203 54.5037 31.0429ZM57.5379 30.7824C57.5942 30.87 57.646 30.9604 57.6928 31.0534 57.941 31.0494 58.1884 31.0235 58.432 30.976 58.5636 30.948 58.6932 30.9104 58.8192 30.8634 58.7492 30.6316 58.6583 30.4066 58.5482 30.191 58.243 30.4507 57.8938 30.6534 57.5168 30.7894ZM56.76 30.9971C56.9515 31.0247 57.144 31.0423 57.3373 31.0499 57.3056 30.9936 57.2704 30.9373 57.2352 30.8845 57.0722 30.9333 56.9064 30.9733 56.7389 31.0042ZM47.9882 30.4867C47.9565 30.6407 47.9424 30.7977 47.9459 30.9549L48.0339 30.9197C48.055 30.8774 48.0762 30.8352 48.1008 30.793ZM44.9222 29.7827C44.7075 30.1558 44.5104 30.5395 44.3168 30.9267 45.3939 30.8317 46.2986 29.7581 46.7526 28.6352 46.9058 28.2576 47.0064 27.8609 47.0518 27.456 46.6245 27.9871 46.1395 28.4688 45.6051 28.8922 45.584 28.9379 45.5629 28.9802 45.5382 29.0224 45.376 29.319 45.1598 29.5828 44.9011 29.8003ZM43.1622 30.6522C43.4016 30.7878 43.6642 30.8774 43.9366 30.9162L43.9824 30.9162C44.1021 30.6698 44.2253 30.4269 44.3344 30.184 44.1908 30.2672 44.0412 30.3401 43.8874 30.4022 43.6438 30.511 43.3917 30.6005 43.1341 30.6698ZM54.9437 30.624C55.1795 30.6944 55.4118 30.7507 55.6301 30.8 55.799 30.5124 55.9948 30.2413 56.2144 29.9904L56.2637 29.9341C55.9814 29.7317 55.6811 29.5561 55.3661 29.4096L55.264 29.568C55.1584 29.92 55.0528 30.272 54.9437 30.624ZM56.5101 30.1242 56.4432 30.1946C56.2841 30.3808 56.137 30.5772 56.0032 30.7824 56.3478 30.7633 56.6899 30.7103 57.024 30.624 56.8681 30.4435 56.6959 30.2774 56.5101 30.1277ZM39.7162 30.0397C39.6324 30.2794 39.5676 30.5254 39.5226 30.7754 39.6176 30.7754 39.7162 30.7472 39.8112 30.7331 39.8464 30.5078 39.8886 30.2861 39.9379 30.0608ZM48.7062 30.5114C48.6232 30.582 48.5478 30.661 48.481 30.7472L48.6534 30.6803ZM58.784 29.9622C58.916 30.2109 59.0244 30.4714 59.1078 30.7402 59.325 30.6346 59.5274 30.5009 59.7098 30.3424 59.7414 30.1347 59.7696 29.9235 59.7907 29.7158 59.72 29.7506 59.6436 29.7732 59.5654 29.7827 59.4176 29.7953 59.2754 29.7248 59.1958 29.5997L59.1536 29.5398 59.2451 29.2547C59.1413 29.4882 59.0036 29.7053 58.8368 29.8989ZM40.2477 30.103C40.2019 30.3002 40.1632 30.5008 40.1315 30.7014L40.4483 30.6733C40.3733 30.4902 40.3051 30.3002 40.2442 30.103ZM53.7222 30.5888C53.863 30.624 54.0038 30.6557 54.1446 30.6838L54.1446 30.6838C53.4413 30.4143 52.8644 29.8904 52.529 29.216 52.4667 29.0753 52.417 28.9292 52.3811 28.7795 52.1886 29.0243 51.9661 29.2442 51.7194 29.4342 51.9035 29.6574 52.1206 29.851 52.3635 30.008 52.8095 30.143 53.2404 30.3247 53.6483 30.5501ZM40.6349 30.1136C40.7267 30.2934 40.8278 30.4685 40.9376 30.6381L40.9658 30.6381C41.4198 30.6099 41.8774 30.5782 42.3315 30.5114L42.0675 30.3178 41.8035 30.1206C41.4304 30.1312 41.0397 30.1312 40.6314 30.1136ZM54.6304 30.5219 54.655 30.5219 54.6797 30.441C54.6586 30.4726 54.641 30.4973 54.6269 30.5219ZM56.7424 29.913C56.9617 30.0968 57.1613 30.3033 57.3373 30.529 57.7276 30.3964 58.087 30.1856 58.3933 29.9094 58.2704 29.6971 58.1328 29.4937 57.9814 29.3005L57.9216 29.223C57.4851 29.3769 57.0821 29.6135 56.7354 29.92ZM49.0442 30.4726 49.0653 30.5184C49.4173 30.3706 49.7517 30.2157 50.0861 30.0502 49.7443 30.0656 49.4081 30.1419 49.0934 30.2755 49.0688 30.3424 49.0547 30.4058 49.0371 30.4726ZM48.1325 29.9869C48.1818 30.1558 48.2416 30.3389 48.3014 30.4902 48.3673 30.4097 48.4415 30.3366 48.5232 30.272L48.6112 30.1981C48.5331 29.9466 48.4778 29.6886 48.4458 29.4272 48.318 29.6009 48.2106 29.7887 48.1254 29.9869ZM42.2787 30.0819C42.4406 30.2051 42.6026 30.3283 42.7645 30.4339 43.107 30.3697 43.4417 30.2706 43.7642 30.1382 44.0919 30.0052 44.3971 29.8224 44.6688 29.5962L44.7744 29.4131C43.9898 29.7918 43.1408 30.0188 42.2717 30.0819ZM52.6698 28.6C52.6986 28.7686 52.7483 28.933 52.8176 29.0893 53.1386 29.7056 53.6825 30.1763 54.3382 30.4058 54.5565 30.0854 54.7712 29.7616 54.9859 29.4378L55.0387 29.2618 54.8592 29.1878C54.1527 28.9059 53.4156 28.7086 52.6627 28.6ZM60.1251 29.4378C60.1251 29.6032 60.1005 29.7686 60.0794 29.9341 60.2015 29.7625 60.292 29.5706 60.3469 29.3674 60.3634 29.3096 60.3764 29.2508 60.3856 29.1914L60.3046 29.1667 60.3046 29.1667C60.2547 29.2648 60.1916 29.3559 60.1181 29.4378ZM49.1814 28.688C49.1814 28.7901 49.199 28.8886 49.2026 28.9907 49.2135 29.3003 49.1955 29.6102 49.1498 29.9165 49.4961 29.8001 49.8583 29.7384 50.2234 29.7334 50.3807 29.7334 50.5391 29.7334 50.6986 29.7334 50.9027 29.6265 51.1012 29.509 51.2934 29.3814 51.1572 29.164 51.0562 28.9264 50.9942 28.6774 50.9942 28.6211 50.9661 28.5648 50.9555 28.512 50.3599 28.5161 49.7661 28.575 49.1814 28.688ZM48.7203 29.0752C48.7351 29.3484 48.7763 29.6196 48.8435 29.8848 48.8865 29.5924 48.903 29.2967 48.8928 29.0013 48.8928 28.9696 48.8928 28.9344 48.8928 28.8992 48.8294 28.9555 48.7731 29.0154 48.7203 29.0752ZM51.2371 29.7792C51.3814 29.7792 51.5258 29.8179 51.6701 29.8426 51.5997 29.7729 51.5339 29.6988 51.473 29.6208ZM40.48 29.7968C40.7827 29.8132 41.0749 29.8203 41.3565 29.8179 41.0812 29.644 40.7753 29.5246 40.4554 29.4659L40.4237 29.4659C40.4237 29.4659 40.4237 29.4976 40.4237 29.5152 40.4237 29.6032 40.4624 29.6912 40.4835 29.7757 40.48 29.7686 40.48 29.7827 40.48 29.7968ZM40.5293 29.1491C41.0252 29.2615 41.4895 29.4841 41.888 29.8003 43.0292 29.7803 44.1443 29.4572 45.1194 28.864L45.1194 28.864C45.2144 28.7232 45.3165 28.5859 45.4221 28.4522 45.5534 27.9204 45.6136 27.3735 45.6016 26.8259 45.6065 26.328 45.6593 25.8317 45.76 25.344 45.4175 25.2797 45.0676 25.2678 44.7216 25.3088 44.3425 25.444 43.9732 25.6051 43.6163 25.791 42.9317 26.137 42.3104 26.5964 41.7789 27.1498 41.2365 27.7274 40.814 28.407 40.5363 29.1491ZM39.8253 29.744 40.0013 29.744 40.0646 29.5258C40.0629 29.5035 40.0629 29.4812 40.0646 29.4589 40.0442 29.466 40.0249 29.4767 40.0083 29.4906 39.9288 29.5578 39.8693 29.6454 39.8358 29.744ZM55.528 29.1526C55.8617 29.3118 56.1799 29.5015 56.4784 29.7194 56.8332 29.3989 57.2451 29.1481 57.6928 28.9802 57.3408 28.6282 56.7776 28.2058 56.225 28.4381 55.9335 28.607 55.6956 28.8547 55.5386 29.1526ZM34.7248 28.5965 34.8058 28.6282C36.3275 29.1697 37.9069 29.5335 39.512 29.7123L39.512 29.7123C39.5694 29.5438 39.6715 29.3941 39.8077 29.2794 39.8619 29.2402 39.921 29.2082 39.9837 29.1843 39.9696 29.0811 39.959 28.979 39.952 28.8781 39.9464 28.7099 39.9545 28.5415 39.9766 28.3747 39.9629 27.8192 40.0449 27.2655 40.2195 26.7379 40.5219 25.9082 41.0897 25.2016 41.8352 24.728 41.5818 24.728 41.3248 24.6963 41.0749 24.6787 38.9002 25.0516 36.8414 25.9227 35.0592 27.2237 35.0146 27.3293 34.9724 27.4384 34.9325 27.551 34.8199 27.8895 34.7501 28.2407 34.7248 28.5965ZM58.2419 29.128C58.3781 29.3034 58.5042 29.4868 58.6186 29.6771 58.7861 29.4775 58.9192 29.2515 59.0128 29.0083 58.7523 29.0218 58.4939 29.0619 58.2419 29.128ZM59.4986 29.48C59.5112 29.4834 59.5246 29.4834 59.5373 29.48 59.6471 29.4579 59.746 29.3997 59.8189 29.3146L59.8189 29.0611 59.6323 29.0365ZM48.4035 28.9344C48.2617 28.9984 48.1469 29.1106 48.0797 29.2512 48.0487 29.3236 48.0322 29.4013 48.0304 29.48 48.1399 29.2984 48.2648 29.1265 48.4035 28.9661ZM51.2723 28.4979C51.2758 28.5291 51.2832 28.5598 51.2934 28.5894 51.3448 28.8002 51.4279 29.002 51.5398 29.1878 51.7764 29.0023 51.9883 28.787 52.1699 28.5472 51.8707 28.512 51.5715 28.4909 51.2723 28.4874ZM48.4563 27.1427C48.2346 27.6954 48.0621 28.2832 47.8896 28.864L47.8403 29.033C47.9755 28.8269 48.1747 28.6711 48.407 28.5894 48.407 28.5085 48.407 28.431 48.4317 28.3501 48.463 28.0735 48.5232 27.801 48.6112 27.537 48.576 27.3926 48.5162 27.2589 48.4598 27.1322ZM52.6803 28.3008C53.4642 28.4136 54.2319 28.618 54.9683 28.9098L55.1162 28.9731 55.1795 28.7619C55.2408 28.6111 55.252 28.4444 55.2112 28.2867 55.1267 28.1037 54.8592 28.0438 54.6093 28.0086 54.2854 27.9664 53.951 27.9171 53.6096 27.8784L53.5146 27.9171 53.497 27.8678C53.2787 27.8432 53.057 27.8256 52.8352 27.8115 52.8028 27.9766 52.7507 28.1373 52.6803 28.2902ZM56.5523 28.072C57.1578 28.072 57.6998 28.5437 58.0096 28.8816 58.363 28.7769 58.7287 28.7189 59.0973 28.7091 59.2845 27.8024 59.1022 26.8584 58.5904 26.0867 58.1627 25.7887 57.7062 25.534 57.2282 25.3264L57.112 25.3053C56.866 25.7677 56.534 26.1787 56.1334 26.5162 55.5523 26.9842 54.9028 27.3605 54.208 27.632L54.6515 27.6918C54.9933 27.6915 55.3105 27.8688 55.4893 28.16 55.5533 28.315 55.5657 28.4867 55.5245 28.6493 55.6765 28.4384 55.8804 28.27 56.1158 28.16 56.2573 28.0957 56.4108 28.0621 56.5664 28.0614ZM40.2794 28.3888C40.2794 28.5437 40.2794 28.6986 40.3075 28.8605 40.593 28.1581 41.0045 27.5138 41.5219 26.9597 42.0767 26.3863 42.724 25.9104 43.4368 25.5517 42.7807 25.6972 42.159 25.9686 41.6064 26.3507 40.9211 26.8293 40.4497 27.557 40.2934 28.3782ZM60.0864 27.713C60.0864 27.7728 60.0864 27.8326 60.0864 27.889 60.111 28.1882 60.1181 28.4838 60.1181 28.7795L60.3152 28.3712C60.2723 28.14 60.2001 27.9153 60.1005 27.7024ZM59.7344 28.7408 59.8294 28.7408C59.8294 28.6422 59.8294 28.5402 59.8294 28.4416ZM59.1888 26.5619C59.4792 27.2346 59.5602 27.9792 59.4211 28.6986L59.7731 27.6426C59.7531 27.4535 59.7175 27.2663 59.6675 27.0829 59.6182 27.0195 59.5619 26.9562 59.5056 26.8928 59.4493 26.8294 59.305 26.6534 59.1958 26.5514ZM48.7731 28.1318C48.7731 28.2163 48.745 28.3008 48.7344 28.3888L48.7344 28.4838 48.833 28.4592 48.833 28.4592C48.8213 28.3457 48.8037 28.2329 48.7802 28.1213ZM34.591 27.6038C34.4045 27.7834 34.2003 28.0438 34.2954 28.2762 34.3233 28.3429 34.3697 28.4003 34.4291 28.4416 34.4569 28.1579 34.5111 27.8775 34.591 27.6038ZM50.9274 27.889C50.6507 27.9418 50.3786 28.0171 50.1142 28.1142 49.9946 28.16 49.8749 28.2163 49.7622 28.2762 50.1498 28.2234 50.5398 28.1916 50.9309 28.1811 50.9228 28.0839 50.9214 27.9863 50.9274 27.889ZM51.2301 28.1776C51.5821 28.1776 51.9552 28.2022 52.3142 28.241 52.3121 28.0869 52.3202 27.9328 52.3389 27.7798 51.9717 27.7733 51.605 27.7933 51.2406 27.8397 51.2301 27.952 51.2266 28.0649 51.2301 28.1776ZM48.928 27.5299C48.997 27.7372 49.0523 27.9489 49.0934 28.1635L49.1779 28.0509C49.4725 27.6163 49.5577 27.0728 49.4102 26.569 49.2114 26.8687 49.0494 27.1914 48.928 27.5299ZM60.192 27.2835C60.3275 27.4931 60.4384 27.7175 60.5229 27.9523L61.1072 26.7555C61.355 26.3237 61.5064 25.8434 61.5507 25.3475 61.5507 23.8586 59.6394 23.144 58.8157 22.9046 58.2704 22.7356 57.7086 22.6259 57.1402 22.5773 57.339 22.9659 57.4485 23.394 57.4605 23.8304 57.4682 24.0673 57.4432 24.3042 57.3866 24.5344 57.5731 24.6387 57.7519 24.7564 57.9216 24.8864L58.5728 24.9286C59.2134 24.9709 60.097 25.1117 60.3645 25.8122 60.4785 26.2251 60.4437 26.665 60.2659 27.0547ZM46.0416 25.439C45.9589 25.8942 45.9202 26.3563 45.9254 26.8189 45.9212 27.193 45.898 27.5666 45.855 27.9382 46.2137 27.5484 46.6101 27.1947 47.0378 26.8822 47.0195 26.4002 46.7935 25.9496 46.4182 25.6467 46.3028 25.5606 46.1761 25.4907 46.0416 25.439ZM49.632 26.2627C49.8238 26.7697 49.8238 27.3292 49.632 27.8362 50.1491 27.6416 50.6454 27.3964 51.1139 27.104 51.2797 26.7107 51.5187 26.3524 51.8179 26.048 51.5666 25.8317 51.2871 25.6505 50.9872 25.5094 50.7338 25.5658 50.4698 25.6362 50.2058 25.7136 49.9974 25.8778 49.8052 26.0617 49.632 26.2627ZM50.9626 27.544 50.9027 27.5792 50.959 27.5792ZM52.8493 27.4912C53.0886 27.4912 53.3245 27.5299 53.5533 27.5546 54.4125 27.2642 55.2158 26.8298 55.9293 26.2698 56.2714 25.9785 56.5597 25.6294 56.7811 25.2384 55.6713 25.0067 54.5223 25.0441 53.4301 25.3475 53.3421 25.5482 53.2576 25.7558 53.1731 25.9635 53.0358 26.3155 52.8986 26.6675 52.7965 27.0195 52.8257 27.1431 52.8422 27.2693 52.8458 27.3962ZM51.3533 27.2976C51.3251 27.3715 51.304 27.4454 51.2829 27.5194 51.644 27.4784 52.0073 27.4619 52.3706 27.4701 52.3987 27.3187 52.4374 27.1638 52.4797 27.009 52.4241 26.8205 52.3385 26.6421 52.2262 26.481 51.9819 26.7943 51.6926 27.0696 51.3674 27.2976ZM42.409 24.728C41.524 25.1579 40.8412 25.9154 40.5046 26.84 40.462 26.955 40.4268 27.0726 40.399 27.192 40.6637 26.757 41.0133 26.3799 41.4269 26.0832 42.3217 25.4844 43.3534 25.1211 44.4259 25.0272L44.623 25.0061C45.0616 24.8544 45.5111 24.7367 45.9677 24.6541L45.9888 24.6154 45.9888 24.6154C45.8135 24.5345 45.6322 24.4674 45.4467 24.4147 45.3411 24.383 45.232 24.3584 45.1229 24.3373L44.704 24.3373C43.975 24.6104 43.2013 24.743 42.423 24.728ZM48.6182 26.752C48.6746 26.8646 48.7274 26.9773 48.7766 27.104 48.915 26.7868 49.0899 26.4867 49.2976 26.2099 49.273 26.1536 49.2448 26.1008 49.2166 26.0445L48.9315 26.1642C48.8164 26.3542 48.7119 26.5504 48.6182 26.752ZM59.9562 26.9139C59.9681 26.931 59.9812 26.9475 59.9949 26.9632 60.142 26.6414 60.1779 26.2798 60.097 25.9354 59.8928 25.3968 59.129 25.2842 58.5728 25.2314L58.3264 25.2314 58.432 25.344C58.9424 25.5299 59.3824 25.8693 59.6922 26.3155 59.8066 26.5023 59.8953 26.7035 59.9562 26.9139ZM46.119 25.1539C46.7713 25.3844 47.2359 25.9662 47.3158 26.6534 47.4778 26.4563 47.6432 26.2557 47.8122 26.0586 47.4609 25.5968 47.0293 25.2021 46.5379 24.8934 46.4253 24.8934 46.3091 24.9251 46.1859 24.9462 46.1683 24.992 46.1437 25.0694 46.112 25.1398ZM39.4698 24.5907C38.9189 24.5798 38.3691 24.6462 37.8365 24.7878 36.8305 25.084 35.9638 25.7309 35.3936 26.6112 36.7805 25.6784 38.3212 24.9979 39.945 24.6013 39.7876 24.5848 39.6292 24.5766 39.4698 24.5766ZM52.0397 26.2451C51.9376 26.3556 51.8433 26.4732 51.7581 26.5971 51.8612 26.4875 51.9552 26.3698 52.0397 26.2451ZM52.4234 26.224C52.5047 26.3351 52.5765 26.4529 52.6381 26.576 52.7226 26.3402 52.8106 26.1078 52.9056 25.872L53.0429 25.52C52.9031 25.5862 52.768 25.6615 52.6381 25.7453 52.5821 25.907 52.5103 26.0626 52.4234 26.2099ZM48.4246 26.4 48.4246 26.4211 48.4422 26.3824ZM48.224 26.048C48.2416 26.0726 48.2592 26.0973 48.2733 26.1219 48.4282 26.0445 48.5795 25.9706 48.7309 25.9037 48.8013 25.791 48.8717 25.6854 48.9491 25.5834 48.9069 25.5306 48.8611 25.4778 48.8154 25.4285 48.5936 25.6326 48.3965 25.8438 48.224 26.048ZM49.5194 25.9107 49.5194 25.9107 49.5405 25.8861ZM47.0342 24.823C47.4102 25.101 47.7467 25.4291 48.0339 25.7981 48.2134 25.5974 48.3859 25.4038 48.5901 25.2173 48.5563 25.1883 48.5211 25.1613 48.4845 25.1363 48.3078 25.0002 48.118 24.8822 47.9178 24.7843 47.6168 24.7842 47.3158 24.8007 47.0166 24.8336ZM51.4694 25.3686C51.6778 25.4924 51.8746 25.635 52.0573 25.7946 52.1632 25.6997 52.2748 25.6116 52.3917 25.5306 52.4198 25.425 52.4445 25.3194 52.4621 25.2138 52.2474 25.2419 52.0362 25.2701 51.825 25.3053ZM49.3328 25.5904 49.3645 25.6397C49.6038 25.5517 49.8362 25.4707 50.0685 25.4003 50.153 25.3299 50.241 25.263 50.3325 25.1997L50.3008 25.1997C50.1565 25.1539 50.0086 25.1117 49.8608 25.073 49.6616 25.2299 49.4785 25.4068 49.3152 25.601ZM49.0442 25.2384 49.1427 25.3546C49.2511 25.2285 49.3687 25.1108 49.4947 25.0026L49.3786 24.9779C49.2494 25.0554 49.1322 25.1398 49.0266 25.2314ZM52.7789 25.1962C52.7789 25.2384 52.7789 25.2771 52.7789 25.3194 52.8542 25.2776 52.9316 25.2399 53.0112 25.2067L53.0957 25.168ZM50.1846 24.8442 50.3923 24.9075C50.6134 24.9757 50.8295 25.058 51.04 25.1539 51.2934 25.0976 51.5398 25.0518 51.7757 25.0131 52.0115 24.9744 52.2509 24.9392 52.4797 24.911 52.4846 24.743 52.4681 24.575 52.4304 24.4112 52.4195 24.3549 52.4044 24.2996 52.3846 24.2458 51.6043 24.2347 50.8362 24.442 50.167 24.8442ZM45.7178 25.0307 45.841 25.0554C45.841 25.0342 45.841 25.0166 45.841 24.999ZM48.6112 24.8547 48.6675 24.897 48.8189 25.0166 48.9597 24.897C48.8259 24.8829 48.7098 24.8653 48.5936 24.8547ZM52.7155 24.2458C52.7257 24.2781 52.7342 24.311 52.7402 24.3443 52.7785 24.5189 52.7972 24.6971 52.7965 24.8758L53.3597 24.8301C53.4442 24.6541 53.5286 24.4781 53.6202 24.3197 53.3143 24.2782 53.0066 24.2535 52.6979 24.2458ZM57.3338 24.8582 57.369 24.8582 57.3373 24.8371ZM56.8902 24.8336 57.0064 24.8336C57.0275 24.7808 57.0451 24.728 57.0627 24.6787 56.1718 24.2387 55.2003 23.9859 54.208 23.936L54.1165 24.0733C54.4403 24.1296 54.7466 24.2 55.0317 24.2669 55.6561 24.4189 56.2707 24.6081 56.8726 24.8336ZM53.9475 24.369C53.8666 24.5098 53.7891 24.6576 53.7152 24.809 54.3981 24.7738 55.0845 24.7702 55.7674 24.7878 55.4928 24.7104 55.2253 24.64 54.9683 24.5802 54.5952 24.4922 54.2538 24.4218 53.9299 24.369ZM49.7235 24.721 49.7869 24.721 49.7869 24.721C49.9333 24.6125 50.0875 24.5149 50.248 24.4288 50.1354 24.4828 50.0181 24.5391 49.896 24.5978 49.8362 24.64 49.7728 24.6858 49.7059 24.728ZM47.9882 24.4957C48.4218 24.5129 48.8534 24.5611 49.28 24.64 49.4324 24.5309 49.5908 24.431 49.7552 24.3408 50.4669 23.9712 51.2442 23.744 52.0432 23.672 51.9517 23.5755 51.8461 23.4936 51.7299 23.4291 51.3452 23.2524 50.9245 23.1669 50.5014 23.1792 49.2378 23.1264 47.6608 23.2707 46.7421 24.1402 47.1652 24.2093 47.5777 24.3311 47.9706 24.5027ZM46.464 24.4746 46.6189 24.5626C46.7667 24.5461 46.9146 24.532 47.0624 24.5203 46.8794 24.4781 46.7104 24.4429 46.5062 24.4147ZM54.4368 23.6579C55.3745 23.725 56.2908 23.9699 57.1366 24.3795 57.1718 24.2046 57.1884 24.0264 57.1859 23.848 57.168 23.3996 57.0412 22.9622 56.8163 22.5738 56.3218 22.5663 55.8325 22.6749 55.3872 22.8906 55.0172 23.0772 54.6902 23.3385 54.4262 23.6579ZM45.2848 24.0099C45.6505 24.0145 46.0159 24.038 46.3795 24.0803 47.3475 22.9856 49.1216 22.8061 50.5296 22.8624 50.9999 22.8534 51.4659 22.9521 51.8918 23.151 52.1037 23.2687 52.2864 23.4323 52.4269 23.6298 52.6979 23.6122 52.9478 23.6051 53.1766 23.6016 53.4839 23.6016 53.7796 23.6086 54.0637 23.6227 54.377 23.198 54.7825 22.8501 55.2499 22.6054 55.6776 22.3927 56.1454 22.2727 56.6227 22.2534 56.3337 21.8563 55.9761 21.5142 55.5667 21.2432 54.3066 20.3878 52.5888 20.0253 50.4522 20.1661 48.6922 20.2787 47.5059 20.7926 46.9075 21.6938 46.7671 21.919 46.6435 22.1543 46.5379 22.3978 46.4288 22.6593 46.2982 22.9112 46.1472 23.151 45.9202 23.4988 45.6213 23.794 45.2707 24.017ZM52.6768 23.9254C53.0527 23.933 53.428 23.966 53.7997 24.024 53.8208 23.9888 53.8419 23.9536 53.8666 23.9184 53.6448 23.9184 53.4195 23.9184 53.1907 23.9184 53.0077 23.936 52.8352 23.936 52.6522 23.936Z" fill="#FFFFFF" transform="matrix(1.00568 0 0 1 991 159)"/><path d="M33.975 86.9053 34.9466 88.7885C35.1554 89.1964 35.4066 89.5808 35.6963 89.936L30.9021 145.376 32.0989 145.376 41.624 92.3859 56.5101 92.3859 51.1878 145.376 52.3846 145.376 63.1242 89.936C63.5054 89.5812 63.8584 89.1979 64.1802 88.7885L65.6762 86.9053Z" fill="#263238" transform="matrix(1.00568 0 0 1 991 159)"/><path d="M33.975 86.9053 34.9466 88.7885C35.1554 89.1964 35.4066 89.5808 35.6963 89.936L30.9021 145.376 32.0989 145.376 41.624 92.3859 56.5101 92.3859 51.1878 145.376 52.3846 145.376 63.1242 89.936C63.5054 89.5812 63.8584 89.1979 64.1802 88.7885L65.6762 86.9053Z" fill="#FFFFFF" fill-opacity="0.5" transform="matrix(1.00568 0 0 1 991 159)"/><path d="M102.545 144.309 100.426 144.309 89.9571 108.94 93.6003 108.94 102.545 144.309Z" fill="#FF4040" transform="matrix(1.00568 0 0 1 991 159)"/><path d="M64.7328 144.309 66.8518 144.309 77.3203 108.94 73.6771 108.94 64.7328 144.309Z" fill="#FF4040" transform="matrix(1.00568 0 0 1 991 159)"/><path d="M121.62 144.309 119.5 144.309 109.032 108.94 112.679 108.94 121.62 144.309Z" fill="#FF4040" transform="matrix(1.00568 0 0 1 991 159)"/><path d="M99.8448 65.5424C86.5568 68.4006 86.3315 85.8035 87.6762 97.159 88.201 101.519 85.0921 105.479 80.7319 106.004 80.4176 106.042 80.1011 106.061 79.7843 106.061L66.7075 106.061C65.617 106.065 64.7356 106.952 64.7395 108.043 64.742 108.809 65.1883 109.505 65.8838 109.828 70.1818 111.802 78.8093 113.819 96.1171 113.819 122.443 113.819 121.373 99.5843 124.161 85.8035 128.522 64.2682 123.496 60.456 99.8448 65.5424Z" fill="#FF4040" transform="matrix(1.00568 0 0 1 991 159)"/><path d="M99.8448 65.5424C86.5568 68.4006 86.3315 85.8035 87.6762 97.159 88.201 101.519 85.0921 105.479 80.7319 106.004 80.4176 106.042 80.1011 106.061 79.7843 106.061L66.7075 106.061C65.617 106.065 64.7356 106.952 64.7395 108.043 64.742 108.809 65.1883 109.505 65.8838 109.828 70.1818 111.802 78.8093 113.819 96.1171 113.819 122.443 113.819 121.373 99.5843 124.161 85.8035 128.522 64.2682 123.496 60.456 99.8448 65.5424Z" fill="#000000" fill-opacity="0.3" transform="matrix(1.00568 0 0 1 991 159)"/><path d="M83.7056 66.2499C81.4982 65.1925 78.8515 66.125 77.7945 68.3324 77.7934 68.3341 77.7927 68.3355 77.792 68.3373L77.6758 68.5837 77.5104 68.9357 77.3098 69.3405 76.8874 70.1677C76.5952 70.7168 76.3066 71.2694 75.9933 71.7974L75.9933 71.7974C76.2362 70.9843 76.5002 70.1677 76.7712 69.3546 77.0422 68.5414 77.3344 67.6474 77.6336 66.7955 78.2144 65.0954 78.8445 63.367 79.4323 61.688L79.4534 61.6317C79.8607 60.4785 79.2563 59.2138 78.1032 58.8065 77.1728 58.4778 76.1372 58.8044 75.5638 59.6077 74.4339 61.1846 73.4518 62.7757 72.4698 64.4019 71.4877 66.0282 70.6077 67.7142 69.7594 69.4426 68.8966 71.2043 68.1363 73.0143 67.4819 74.8634 67.1581 75.8208 66.8518 76.8064 66.5984 77.8554 66.3189 78.9881 66.1538 80.1462 66.1056 81.312 66.0306 83.2107 67.3626 84.8756 69.2314 85.2192L69.52 85.272C70.739 85.4913 71.9886 85.4758 73.2019 85.2262 74.3125 84.9886 75.3808 84.5838 76.3699 84.0259 78.0247 83.0759 79.5052 81.8509 80.7488 80.4038 81.319 79.7671 81.8523 79.0983 82.3469 78.401 82.8291 77.7216 83.2902 77.0422 83.7021 76.3418 84.1139 75.6413 84.5152 74.9338 84.8707 74.2298 85.0502 73.8778 85.2227 73.5082 85.3952 73.135L85.6381 72.5683 85.9021 71.9277C86.7856 69.752 85.8232 67.2644 83.7056 66.2499Z" fill="#263238" transform="matrix(1.00568 0 0 1 991 159)"/><path d="M75.4688 55.1338 75.3738 56.8938C75.3435 57.5949 75.4635 58.2947 75.7258 58.9459L76.4298 60.7517C76.7613 61.5908 77.5467 62.1636 78.4467 62.223L78.4467 62.223C79.6921 62.3075 80.7808 61.3913 80.9107 60.1498 80.9639 59.2462 80.8822 58.3398 80.6678 57.4605L80.4707 55.2253C80.4021 54.4685 79.7959 53.8729 79.0381 53.8173L77.1338 53.673C76.2745 53.6131 75.5297 54.2608 75.4699 55.12 75.4695 55.1246 75.4692 55.1292 75.4688 55.1338Z" fill="#FFB573" transform="matrix(1.00568 0 0 1 991 159)"/><path d="M80.6714 57.457 80.4742 55.2253C80.4045 54.4706 79.8009 53.8757 79.0451 53.8173L77.2006 53.6765C76.993 56.5558 78.4678 59.759 80.0835 61.7021 80.5584 61.3181 80.8569 60.758 80.9107 60.1498 80.9667 59.2451 80.8861 58.3373 80.6714 57.457Z" fill="#000000" fill-opacity="0.2" transform="matrix(1.00568 0 0 1 991 159)"/><path d="M96.5149 62.3533C91.432 62.7334 85.0678 63.1488 80.5024 65.3206 78.2496 66.3942 77.6442 68.6506 77.9786 71.1251 78.5101 75.0534 78.9677 78.1898 79.9462 81.5056 82.2131 89.1546 77.6688 94.6317 82.7622 100.556 84.9974 103.097 98.7008 105.484 108.405 102.295 109.813 96.5043 107.994 82.104 106.047 68.9955 105.368 64.3667 101.186 62.0048 96.5149 62.3533Z" fill="#FF4040" transform="matrix(1.00568 0 0 1 991 159)"/><path d="M90.207 56.1968C90.4534 58.351 91.52 61.512 93.3434 62.4976 94.0252 62.8714 94.2747 63.7275 93.9006 64.4093 93.8228 64.5512 93.7214 64.6782 93.6003 64.7856 92.5267 65.7254 90.8688 66.5456 88.6442 67.0067 85.7437 67.5981 85.1242 66.7216 85.1664 65.8205 85.2097 65.3858 85.3867 64.975 85.6733 64.6448 86.6096 63.4902 85.6733 62.5926 85.0925 61.9168Z" fill="#FFB573" transform="matrix(1.00568 0 0 1 991 159)"/><path d="M88.9046 59.4458C88.848 59.325 88.7846 59.2075 88.7146 59.0938L85.096 61.9274C85.448 62.3674 85.9971 62.9059 86.064 63.543 87.9331 62.4202 89.4538 60.6144 88.9046 59.4458Z" fill="#000000" fill-opacity="0.2" transform="matrix(1.00568 0 0 1 991 159)"/><path d="M66.3555 133.728C67.0595 133.007 71.537 131.616 71.537 131.616 72.7098 134.986 73.6785 138.423 74.4374 141.909L68.64 142.5C68.64 142.5 67.679 136.625 66.3555 133.728Z" fill="#FFB573" transform="matrix(1.00568 0 0 1 991 159)"/><path d="M91.9952 97.7222C75.2294 97.9616 53.1661 97.064 58.3616 112.344 60.5862 118.884 60.4067 121.289 63.008 129.212 64.1274 132.623 64.5075 133.626 65.3206 135.988 66.2112 138.1 71.5475 137.713 73.5187 136.886 75.8877 135.626 73.8707 132.222 73.6067 130.307 72.2586 120.958 75.057 117.385 72.1142 111.257 77.4646 112.031 92.5056 111.489 94.7443 102.295 94.7443 102.295 97.8278 98.6304 91.9952 97.7222Z" fill="#263238" transform="matrix(1.00568 0 0 1 991 159)"/><path d="M66.6864 137.115 67.3904 138.523C67.4773 138.696 67.6674 138.791 67.8586 138.758 68.809 138.593 71.639 138.139 73.2864 138.34 73.53 138.365 73.7482 138.189 73.7743 137.945 73.7746 137.939 73.7753 137.934 73.7757 137.928 73.8074 137.372 73.8003 136.65 73.7933 136.196 73.7859 135.956 73.5898 135.765 73.3498 135.763 71.2057 135.785 69.0687 136.021 66.9715 136.467 66.7332 136.523 66.5857 136.762 66.6421 137.001 66.6516 137.041 66.6663 137.079 66.6864 137.115Z" fill="#FF4040" transform="matrix(1.00568 0 0 1 991 159)"/><path d="M75.68 145.591 75.0746 141.504C75.0285 141.308 74.8461 141.175 74.6451 141.191L68.6998 141.215C68.2229 141.182 67.7484 141.306 67.3482 141.567 66.0106 142.673 63.9373 143.732 60.9242 144.316 59.9702 144.503 60.375 146.397 62.6102 146.386 66.3062 146.369 66.1514 146.252 69.2982 146.242 71.9946 146.242 72.6704 146.365 74.8106 146.386 75.2565 146.419 75.6448 146.085 75.6779 145.639 75.6789 145.623 75.6796 145.607 75.68 145.591Z" fill="#263238" transform="matrix(1.00568 0 0 1 991 159)"/><path d="M88.1408 50.5437C89.7142 54.1482 90.8195 56.1757 89.9782 58.9917 88.7181 63.2474 83.607 64.2048 80.9917 61.2269 78.6403 58.5446 76.4614 53.0957 79.1542 49.6883 81.8083 46.3373 86.5674 46.9357 88.1408 50.5437Z" fill="#FFB573" transform="matrix(1.00568 0 0 1 991 159)"/><path d="M85.2474 59.2099C85.4413 59.2053 85.6356 59.2159 85.8282 59.2416 85.882 59.2483 85.9204 59.2976 85.9137 59.3518 85.9133 59.3539 85.913 59.3556 85.9126 59.3578 85.9077 59.4099 85.8616 59.4486 85.8092 59.4436 85.806 59.4433 85.8032 59.4429 85.8 59.4422 84.9334 59.2955 84.0491 59.5742 83.424 60.192 83.3842 60.2318 83.3195 60.2318 83.2797 60.192 83.241 60.154 83.2403 60.0917 83.2783 60.0526 83.2786 60.0523 83.2793 60.0516 83.2797 60.0512 83.801 59.5253 84.5071 59.2236 85.2474 59.2099Z" fill="#263238" transform="matrix(1.00568 0 0 1 991 159)"/><path d="M83.6246 54.912C83.4451 55.0141 83.431 55.3203 83.5894 55.5949L84.2371 55.2182C84.0787 54.9437 83.8042 54.8064 83.6246 54.912Z" fill="#263238" transform="matrix(1.00568 0 0 1 991 159)"/><path d="M80.256 56.8234C80.0765 56.9254 80.0589 57.2317 80.2208 57.5062L80.8685 57.1296C80.689 56.855 80.4179 56.7178 80.256 56.8234Z" fill="#263238" transform="matrix(1.00568 0 0 1 991 159)"/><path d="M82.7446 53.2013C82.79 53.1425 82.8661 53.1161 82.9382 53.1344 83.3941 53.2639 83.8841 53.1657 84.2547 52.8704 84.3276 52.7975 84.4455 52.7975 84.5187 52.8704 84.5187 52.8704 84.5187 52.8704 84.5187 52.8704 84.5916 52.9433 84.5916 53.0612 84.5187 53.1344 84.5187 53.1344 84.5187 53.1344 84.5187 53.1344 84.0551 53.5149 83.4353 53.6462 82.8573 53.4864 82.7587 53.4604 82.6989 53.36 82.7235 53.2611 82.7274 53.24 82.7344 53.2199 82.7446 53.2013Z" fill="#263238" transform="matrix(1.00568 0 0 1 991 159)"/><path d="M79.816 54.8557C79.8512 54.8296 79.8956 54.818 79.9392 54.824 80.0409 54.8332 80.1163 54.9229 80.1082 55.0246 80.0719 55.6237 79.7463 56.1676 79.2352 56.4819 79.1447 56.5287 79.0335 56.4942 78.9853 56.4045 78.9364 56.3161 78.9684 56.2045 79.0571 56.1556 79.0578 56.1553 79.0585 56.1549 79.0592 56.1546 79.4584 55.899 79.7101 55.4664 79.735 54.993 79.7407 54.9377 79.7702 54.8874 79.816 54.8557Z" fill="#263238" transform="matrix(1.00568 0 0 1 991 159)"/><path d="M80.9917 57.024C81.0198 57.5784 80.7639 58.1089 80.3123 58.432 81.9526 58.1645 80.9917 57.024 80.9917 57.024Z" fill="#000000" fill-opacity="0.2" transform="matrix(1.00568 0 0 1 991 159)"/><path d="M83.1811 55.8061C83.6574 56.0775 84.2382 56.0908 84.7264 55.8413 83.8323 56.9712 83.1811 55.8061 83.1811 55.8061Z" fill="#000000" fill-opacity="0.2" transform="matrix(1.00568 0 0 1 991 159)"/><path d="M91.1152 50.6634C90.9392 49.0371 90.5098 47.8227 89.9395 46.999 90.1884 47.0786 90.4443 47.1349 90.7034 47.168 89.2531 44.968 86.8877 45.3798 86.1274 46.2704 85.2016 44.2464 83.8922 45.5981 82.4032 45.855 80.9142 46.112 78.144 45.0349 78.144 45.0349 78.144 45.0349 78.753 46.0909 79.7456 46.2528 77.8202 47.1222 77.1091 48.6182 76.5987 49.7728 76.0883 50.9274 74.5395 52.3107 74.5395 52.3107 75.1858 52.3174 75.812 52.0872 76.2995 51.663 76.1059 52.8387 75.2928 55.0317 74.8915 55.535 75.9475 55.183 76.9366 53.8912 76.9366 53.8912 76.9366 53.8912 77.1267 56.0032 78.1194 57.4323 77.9152 55.6054 80.8403 51.9482 80.8403 51.9482 80.7104 52.7324 80.7104 53.5329 80.8403 54.3171 82.1603 53.2013 84.311 49.5475 84.311 49.5475 84.3381 50.6092 84.4881 51.6637 84.7581 52.6909 84.883 52.0763 85.14 51.4962 85.5114 50.9907 85.1242 52.3002 86.1098 55.3274 86.1098 55.3274 86.0601 54.5368 86.1112 53.7434 86.2611 52.9654 86.5392 53.8666 88.2464 54.8592 88.9469 54.9613 88.9398 54.9683 91.6115 55.176 91.1152 50.6634Z" fill="#263238" transform="matrix(1.00568 0 0 1 991 159)"/><path d="M91.08 53.944C91.0244 54.9032 90.5918 55.8019 89.8762 56.4432 88.9187 57.2845 87.8909 56.5629 87.6973 55.3872 87.5213 54.3136 87.8064 52.5712 88.9856 52.2016 90.1648 51.832 91.1363 52.7683 91.08 53.944Z" fill="#FFB573" transform="matrix(1.00568 0 0 1 991 159)"/><path d="M81.9245 56.6333C81.9245 56.6333 82.456 58.5306 82.3539 59.7133 83.1248 59.7942 83.7619 59.0304 83.7619 59.0304Z" fill="#ED893E" transform="matrix(1.00568 0 0 1 991 159)"/><path d="M79.9885 111.306C79.7843 108.979 79.4886 106.652 79.0944 104.35 78.9177 103.299 78.578 102.281 78.0877 101.334 66.8237 99.8342 65.8275 109.197 73.2723 126.998 72.8781 120.007 74.6803 116.604 72.1178 111.257 74.7307 111.574 77.3717 111.591 79.9885 111.306Z" fill="#000000" fill-opacity="0.2" transform="matrix(1.00568 0 0 1 991 159)"/><path d="M89.76 53.3843 90.5098 54.9437C90.8019 55.5357 90.9515 56.188 90.9462 56.848L90.9075 58.608C90.8709 59.4479 90.2669 60.155 89.4432 60.3222L89.4432 60.3222C88.1767 60.6253 86.8602 60.067 86.1978 58.9459 85.8116 58.1712 85.5536 57.339 85.4339 56.4819L84.7968 54.4403C84.5895 53.8127 84.9302 53.1358 85.5578 52.9285 85.6036 52.9133 85.6504 52.901 85.6979 52.8915L87.5459 52.3917C88.4238 52.1805 89.3337 52.5884 89.76 53.3843Z" fill="#000000" fill-opacity="0.2" transform="matrix(1.00568 0 0 1 991 159)"/><path d="M90.1894 53.592 90.7667 55.257C90.9987 55.917 91.0839 56.6199 91.0166 57.3162L90.8301 59.2522C90.7456 60.1498 90.1504 60.9178 89.3024 61.2234L89.3024 61.2234C88.1267 61.657 86.8194 61.079 86.3491 59.9174 86.0457 59.0649 85.8725 58.1712 85.8352 57.2669L85.4058 55.0634C85.2576 54.3154 85.6733 53.5702 86.3878 53.3034L88.1795 52.6381C88.9856 52.3406 89.8804 52.7532 90.1778 53.5593 90.1817 53.5702 90.1856 53.5811 90.1894 53.592Z" fill="#FFB573" transform="matrix(1.00568 0 0 1 991 159)"/><path d="M102.055 64.3702C99.6857 63.7757 97.2826 65.2143 96.6874 67.584L96.5994 67.936 96.4374 68.5978 96.2368 69.344C96.0925 69.8544 95.9517 70.3683 95.7862 70.8752 95.473 71.889 95.0998 72.8675 94.7091 73.7933L94.688 73.8426C94.2973 72.6634 93.9347 71.4349 93.6109 70.1853 93.3715 69.3018 93.1427 68.4042 92.9315 67.503 92.7203 66.6019 92.495 65.6938 92.2944 64.7786 91.879 62.9622 91.4918 61.0966 91.0976 59.2874L91.0976 59.2346C90.8325 58.0409 89.6502 57.288 88.4562 57.5531 87.4896 57.7674 86.7828 58.5981 86.7258 59.5866 86.6061 61.5859 86.6096 63.5149 86.6589 65.4861 86.7082 67.4573 86.8454 69.4144 87.0602 71.3962 87.1658 72.3888 87.3101 73.385 87.472 74.3882 87.6339 75.3914 87.824 76.4086 88.088 77.4365 88.3478 78.5125 88.6772 79.5707 89.0736 80.6045 89.2985 81.1916 89.5618 81.7629 89.8621 82.3152 90.2253 82.9872 90.6608 83.6176 91.161 84.1949 92.413 85.6215 94.5148 85.9299 96.1242 84.9235L96.3635 84.7722C97.0929 84.3128 97.7828 83.7936 98.4262 83.2198 99.0306 82.6753 99.5942 82.0871 100.112 81.4598 100.605 80.8586 101.067 80.2324 101.496 79.5837 101.908 78.9395 102.274 78.2918 102.619 77.6371 102.96 76.9937 103.269 76.3333 103.544 75.6589 103.819 74.9936 104.083 74.3283 104.301 73.6525 104.519 72.9766 104.731 72.3043 104.9 71.6144 104.984 71.2624 105.072 70.9104 105.142 70.5584L105.248 70.048 105.354 69.4285C105.747 67.1391 104.309 64.9334 102.055 64.3702Z" fill="#263238" transform="matrix(1.00568 0 0 1 991 159)"/><path d="M83.1002 133.408C83.7162 132.62 88.0282 130.793 88.0282 130.793 89.5351 134.026 90.8459 137.349 91.953 140.74L86.2435 141.905C86.2435 141.905 84.7123 136.164 83.1002 133.408Z" fill="#FFB573" transform="matrix(1.00568 0 0 1 991 159)"/><path d="M94.1459 96.5994C77.6688 97.7222 64.9299 97.7574 72.1952 112.168 75.3069 118.335 75.9229 121.641 79.3126 129.258 80.7699 132.539 81.2522 133.5 82.2976 135.77 83.3994 137.787 88.6688 136.854 90.545 135.833 92.7731 134.337 90.4358 131.155 89.9677 129.279 87.6832 120.127 90.0134 116.857 86.5216 111.024 91.9178 111.302 106.174 111.489 108.412 102.295 108.416 102.295 105.73 96.5994 94.1459 96.5994Z" fill="#263238" transform="matrix(1.00568 0 0 1 991 159)"/><path d="M83.776 136.748 84.6314 138.086C84.737 138.25 84.9369 138.325 85.1242 138.273 86.0499 138.012 88.8202 137.276 90.4816 137.305 90.7245 137.307 90.9234 137.111 90.9255 136.869 90.9255 136.861 90.9255 136.854 90.9251 136.847 90.9005 136.291 90.823 135.573 90.7667 135.126 90.7393 134.885 90.5217 134.712 90.281 134.739 88.1499 134.977 86.0485 135.43 84.0083 136.09 83.7774 136.166 83.651 136.414 83.7264 136.645 83.7383 136.682 83.7552 136.716 83.776 136.748Z" fill="#FF4040" transform="matrix(1.00568 0 0 1 991 159)"/><path d="M93.5898 144.01 92.4035 139.881C92.3314 139.692 92.1286 139.586 91.9318 139.635L86.0534 140.522C85.5754 140.561 85.1238 140.756 84.7686 141.078 83.2747 142.809 81.2226 143.963 78.9677 144.341 78.0173 144.528 78.4221 146.421 80.6538 146.411 84.3533 146.393 84.1914 145.922 87.3101 145.468 89.6685 145.116 90.6682 145.116 92.8013 144.911 93.2466 144.905 93.6021 144.539 93.5954 144.093 93.595 144.066 93.5929 144.038 93.5898 144.01Z" fill="#263238" transform="matrix(1.00568 0 0 1 991 159)"/><path d="M28.9872 84.7194 147.009 84.7194 147.009 86.9018 28.9872 86.9018Z" fill="#FF4040" transform="matrix(-1.00568 1.22465e-16 -1.23161e-16 -1 1168 330.625)"/><path d="M28.9872 84.7194 147.009 84.7194 147.009 86.9018 28.9872 86.9018Z" fill="#FFFFFF" fill-opacity="0.5" transform="matrix(-1.00568 1.22465e-16 -1.23161e-16 -1 1168 330.625)"/><path d="M114.998 84.7194 147.013 84.7194 147.013 86.9018 114.998 86.9018Z" fill="#FF4040" fill-opacity="0.3" transform="matrix(-1.00568 1.22465e-16 -1.23161e-16 -1 1254.5 330.625)"/><path d="M143.901 145.376 145.098 145.376 140.304 89.936C140.594 89.5815 140.845 89.1968 141.053 88.7885L142.025 86.9053 110.306 86.9053 111.802 88.7885C112.129 89.1993 112.488 89.5829 112.876 89.936L123.615 145.376 124.812 145.376 119.49 92.3859 134.376 92.3859Z" fill="#263238" transform="matrix(1.00568 0 0 1 991 159)"/><path d="M143.901 145.376 145.098 145.376 140.304 89.936C140.594 89.5815 140.845 89.1968 141.053 88.7885L142.025 86.9053 110.306 86.9053 111.802 88.7885C112.129 89.1993 112.488 89.5829 112.876 89.936L123.615 145.376 124.812 145.376 119.49 92.3859 134.376 92.3859Z" fill="#FFFFFF" fill-opacity="0.6" transform="matrix(1.00568 0 0 1 991 159)"/></g></svg>