<svg width="180" height="180" xmlns="http://www.w3.org/2000/svg" xmlns:xlink="http://www.w3.org/1999/xlink" xml:space="preserve" overflow="hidden"><defs><clipPath id="clip0"><rect x="1009" y="606" width="180" height="180"/></clipPath></defs><g clip-path="url(#clip0)" transform="translate(-1009 -606)"><path d="M1030.51 686.64C1022.64 702.664 1043.75 713.014 1056.19 717.38 1062.46 719.58 1067.51 721.214 1070.98 726.845 1074.2 732.068 1074.34 736.64 1081.1 738.685 1087.31 740.568 1099.59 735.974 1105.22 730.225 1112.1 723.173 1110.98 717.035 1115.26 710.123 1121.43 700.165 1152.81 697.84 1143.3 679.688 1140.82 674.954 1134.76 674.533 1130.15 672.553 1123.31 669.612 1121.65 665.216 1119.41 658.132 1117.36 651.652 1114.69 644.891 1108.05 642.547 1101.57 640.265 1093.78 643.487 1087.47 640.52 1077.4 635.776 1060.12 622.128 1054.09 643.458 1051.95 651.018 1054.32 661.404 1050.18 668.071 1045.79 675.12 1035.28 676.92 1030.51 686.64Z" fill="#218EB6"/><path d="M1030.51 686.64C1022.64 702.664 1043.75 713.014 1056.19 717.38 1062.46 719.58 1067.51 721.214 1070.98 726.845 1074.2 732.068 1074.34 736.64 1081.1 738.685 1087.31 740.568 1099.59 735.974 1105.22 730.225 1112.1 723.173 1110.98 717.035 1115.26 710.123 1121.43 700.165 1152.81 697.84 1143.3 679.688 1140.82 674.954 1134.76 674.533 1130.15 672.553 1123.31 669.612 1121.65 665.216 1119.41 658.132 1117.36 651.652 1114.69 644.891 1108.05 642.547 1101.57 640.265 1093.78 643.487 1087.47 640.52 1077.4 635.776 1060.12 622.128 1054.09 643.458 1051.95 651.018 1054.32 661.404 1050.18 668.071 1045.79 675.12 1035.28 676.92 1030.51 686.64Z" fill="#FFFFFF" fill-opacity="0.9"/><path d="M1168.8 755.846C1168.8 758.097 1137.55 759.922 1099 759.922 1060.45 759.922 1029.2 758.097 1029.2 755.846 1029.2 753.596 1060.45 751.771 1099 751.771 1137.55 751.771 1168.8 753.596 1168.8 755.846Z" fill="#F5F5F5"/><path d="M1144.72 686.161 1128.16 698.362 1135.41 699.348 1121.26 722.924 1100.9 719.324C1100.4 719.234 1099.89 719.417 1099.55 719.803L1099.55 719.803 1082.63 739.373 1059.17 735.665C1058.67 735.586 1058.16 735.739 1057.78 736.082L1057.78 736.082 1039.45 752.88 1039.45 752.88C1038.73 753.559 1038.69 754.698 1039.37 755.425 1040.05 756.152 1041.18 756.191 1041.91 755.512L1059.45 739.11 1082.99 742.627 1082.99 742.627C1083.53 742.713 1084.08 742.511 1084.43 742.094L1101.2 722.316 1121.68 725.794 1121.68 725.794C1122.24 725.888 1122.79 725.629 1123.08 725.142L1137.53 700.64 1141.85 706.544Z" fill="#263238"/><path d="M1070.76 669.338 1070.57 669.432 1070.34 669.551C1070.19 669.637 1070.03 669.72 1069.87 669.814 1069.55 669.994 1069.24 670.192 1068.92 670.4 1068.29 670.807 1067.68 671.261 1067.08 671.732 1066.48 672.204 1065.91 672.715 1065.35 673.237L1064.52 674.04 1064.12 674.458 1063.92 674.67 1063.85 674.749C1063.59 675.184 1063.5 675.692 1063.58 676.189 1063.63 676.905 1063.77 677.613 1063.98 678.299 1064.45 679.791 1065.03 681.245 1065.71 682.648L1064.36 683.53C1063.3 682.18 1062.4 680.704 1061.7 679.134 1061.33 678.296 1061.06 677.414 1060.89 676.51 1060.81 675.994 1060.78 675.469 1060.83 674.947 1060.88 674.328 1061.07 673.728 1061.39 673.194 1061.48 673.05 1061.58 672.913 1061.68 672.784L1061.88 672.532 1062.29 672.035C1062.57 671.704 1062.86 671.383 1063.15 671.066 1063.75 670.435 1064.37 669.834 1065.03 669.266 1065.69 668.692 1066.39 668.159 1067.11 667.672 1067.47 667.427 1067.86 667.193 1068.25 666.973 1068.44 666.858 1068.64 666.754 1068.85 666.649L1069.17 666.494C1069.29 666.44 1069.37 666.401 1069.53 666.332Z" fill="#B55B52"/><path d="M1075.82 656.512C1075.94 658.43 1076.23 662.632 1074.74 663.712 1074.74 663.712 1075 665.677 1078.48 666.134 1082.31 666.635 1080.56 664.475 1080.56 664.475 1078.53 663.704 1078.79 662.16 1079.34 660.756Z" fill="#B55B52"/><path d="M1074.01 664.68C1074.01 664.68 1073.67 663.6 1073.54 662.97 1073.42 662.34 1078.15 662.545 1079.71 662.945 1081.28 663.344 1081.78 665.18 1081.78 665.18Z" fill="#263238"/><path d="M1082.82 655.169C1083.11 655.728 1083.47 656.245 1083.9 656.706 1083.66 656.923 1083.33 657.019 1083.01 656.969Z" fill="#A02724"/><path d="M1081.72 653.498C1081.7 653.498 1081.67 653.491 1081.65 653.48 1081.58 653.441 1081.55 653.349 1081.59 653.276 1081.59 653.276 1081.59 653.275 1081.59 653.275 1081.81 652.84 1082.22 652.537 1082.7 652.462 1082.78 652.456 1082.85 652.516 1082.86 652.598 1082.87 652.679 1082.81 652.753 1082.73 652.763 1082.73 652.764 1082.73 652.764 1082.73 652.764L1082.73 652.764C1082.35 652.827 1082.02 653.07 1081.86 653.416 1081.83 653.466 1081.78 653.498 1081.72 653.498Z" fill="#263238"/><path d="M1082.55 654.755C1082.57 655.01 1082.73 655.201 1082.91 655.187 1083.08 655.172 1083.19 654.949 1083.16 654.694 1083.14 654.438 1082.98 654.244 1082.8 654.262 1082.63 654.28 1082.52 654.499 1082.55 654.755Z" fill="#263238"/><path d="M1082.73 654.283 1083.33 654.042C1083.33 654.042 1083.06 654.553 1082.73 654.283Z" fill="#263238"/><path d="M1058.27 734.927 1061.34 735.758 1064.25 728.915 1061.18 728.083 1058.27 734.927Z" fill="#B55B52"/><path d="M1062.42 733.44 1058.89 732.882C1058.76 732.862 1058.64 732.937 1058.6 733.058L1057.76 735.787C1057.69 736.062 1057.85 736.344 1058.13 736.417 1058.14 736.422 1058.16 736.425 1058.18 736.428 1059.41 736.601 1060.02 736.622 1061.57 736.867 1062.52 737.018 1063.9 737.339 1065.22 737.544 1066.54 737.749 1066.82 736.464 1066.3 736.255 1063.92 735.337 1063.65 734.545 1062.93 733.735 1062.8 733.58 1062.62 733.475 1062.42 733.44Z" fill="#263238"/><path d="M1061.18 728.083 1064.25 728.918 1062.75 732.446 1059.68 731.611 1061.18 728.083Z" fill="#000000" fill-opacity="0.2"/><path d="M1072.25 664.36C1070.99 663.87 1067.18 667.045 1067.18 667.045L1068.88 672.899C1068.88 672.899 1073.14 670.422 1073.53 668.705 1073.93 666.919 1073.74 664.939 1072.25 664.36Z" fill="#218EB6"/><path d="M1086.42 667.301C1086.42 669.346 1086.49 673.136 1085.16 679.901 1084.92 681.128 1085.4 681.676 1085.18 682.928 1085.04 683.749 1084.58 683.627 1084.52 684.026L1071.6 684.026C1071.6 683.645 1071.04 683.44 1070.9 682.608 1070.6 680.707 1071.7 680.549 1071.67 679.35 1071.58 676.326 1071.14 672.924 1069.81 666.955 1069.55 665.793 1070.27 664.633 1071.43 664.365 1071.49 664.351 1071.55 664.339 1071.61 664.331 1072.54 664.198 1073.66 664.068 1074.79 664.014 1076.74 663.874 1078.7 663.874 1080.66 664.014 1081.8 664.118 1083.02 664.295 1084 664.457 1085.4 664.684 1086.42 665.889 1086.42 667.301Z" fill="#218EB6"/><path d="M1082.85 669.079C1083.43 670.454 1085.26 672.517 1086.15 673.468 1086.28 672.143 1086.35 671.02 1086.39 670.069Z" fill="#000000" fill-opacity="0.2"/><path d="M1086.76 666.278C1087.82 667.358 1088.97 668.46 1090.12 669.479 1091.23 670.495 1092.43 671.421 1093.69 672.247 1093.84 672.352 1094 672.424 1094.15 672.517L1094.38 672.647C1094.41 672.665 1094.38 672.647 1094.38 672.647L1094.35 672.647 1094.31 672.647C1094.22 672.647 1094.42 672.686 1094.67 672.596 1095.3 672.351 1095.89 672.021 1096.43 671.617 1097.68 670.704 1098.87 669.72 1100.01 668.669L1101.24 669.702C1100.31 671.106 1099.22 672.401 1098 673.561 1097.33 674.217 1096.56 674.764 1095.72 675.181 1095.45 675.308 1095.17 675.406 1094.88 675.473 1094.51 675.559 1094.12 675.571 1093.74 675.509 1093.62 675.489 1093.51 675.462 1093.41 675.426 1093.35 675.41 1093.29 675.391 1093.24 675.368L1093.1 675.307 1092.79 675.163C1092.59 675.062 1092.38 674.969 1092.19 674.861 1090.7 674.031 1089.29 673.054 1087.99 671.945 1086.72 670.877 1085.5 669.73 1084.37 668.51Z" fill="#B55B52"/><path d="M1100.88 667.56C1100.29 667.99 1099.81 668.562 1099.5 669.223L1099.77 670.433C1099.8 670.545 1099.91 670.615 1100.02 670.589 1100.04 670.585 1100.05 670.58 1100.07 670.573L1102 669.623 1102.81 669.212C1102.99 669.122 1103.09 668.928 1103.06 668.73L1102.92 667.812C1102.89 667.578 1102.69 667.406 1102.45 667.416L1101.2 667.456C1101.08 667.459 1100.97 667.495 1100.88 667.56Z" fill="#B55B52"/><path d="M1066.16 683.67C1066.08 684.395 1065.82 685.09 1065.41 685.69L1064.22 686.05C1064.11 686.084 1064 686.022 1063.96 685.912 1063.96 685.897 1063.96 685.881 1063.95 685.866L1063.81 683.706 1063.76 682.604C1063.76 682.523 1063.8 682.448 1063.88 682.417L1065.15 681.913C1065.24 681.878 1065.34 681.917 1065.39 682.003L1066.11 683.324C1066.16 683.432 1066.18 683.552 1066.16 683.67Z" fill="#B55B52"/><path d="M1053.19 694.326 1066.1 695.838C1066.74 695.884 1067.33 695.513 1067.57 694.92L1070.32 687.313C1070.51 686.891 1070.32 686.398 1069.89 686.213 1069.8 686.172 1069.7 686.149 1069.6 686.143L1056.69 684.631C1056.05 684.585 1055.46 684.956 1055.22 685.549L1052.47 693.156C1052.28 693.578 1052.48 694.071 1052.9 694.257 1052.99 694.297 1053.09 694.321 1053.19 694.326Z" fill="#263238"/><path d="M1054.72 696.979 1070.56 698.819C1071.31 698.9 1071.98 698.385 1072.11 697.645L1073.65 687.958C1073.77 687.262 1073.3 686.601 1072.61 686.482 1072.58 686.477 1072.55 686.474 1072.53 686.471L1056.69 684.631C1055.94 684.552 1055.26 685.068 1055.14 685.808L1053.6 695.496C1053.48 696.19 1053.94 696.849 1054.64 696.968 1054.66 696.972 1054.69 696.976 1054.72 696.979Z" fill="#218EB6"/><path d="M1054.72 696.979 1070.56 698.819C1071.31 698.9 1071.98 698.385 1072.11 697.645L1073.65 687.958C1073.77 687.262 1073.3 686.601 1072.61 686.482 1072.58 686.477 1072.55 686.474 1072.53 686.471L1056.69 684.631C1055.94 684.552 1055.26 685.068 1055.14 685.808L1053.6 695.496C1053.48 696.19 1053.94 696.849 1054.64 696.968 1054.66 696.972 1054.69 696.976 1054.72 696.979Z" fill="#000000" fill-opacity="0.3"/><path d="M1067.1 688.508 1067.01 688.508 1062.41 687.972 1062.41 687.972C1062.21 687.951 1062.03 687.848 1061.91 687.688 1061.79 687.528 1061.74 687.325 1061.77 687.126L1062.11 685.038C1062.24 684.231 1062.98 683.669 1063.8 683.756L1066.87 684.116C1067.69 684.209 1068.28 684.951 1068.19 685.772 1068.19 685.797 1068.18 685.821 1068.18 685.844L1067.86 687.868C1067.79 688.237 1067.47 688.507 1067.1 688.508ZM1062.5 687.256 1067.09 687.788C1067.12 687.791 1067.14 687.774 1067.15 687.749L1067.47 685.722C1067.51 685.512 1067.45 685.297 1067.32 685.128 1067.19 684.958 1067 684.849 1066.79 684.826L1063.72 684.48C1063.29 684.441 1062.9 684.738 1062.82 685.164L1062.49 687.252 1062.46 687.612Z" fill="#218EB6"/><path d="M1072.25 699.017 1056.41 697.177C1055.66 697.079 1055.11 696.429 1055.14 695.676L1055.63 685.866C1055.65 685.178 1056.23 684.641 1056.92 684.665 1056.95 684.667 1056.99 684.669 1057.03 684.674L1072.87 686.514C1073.62 686.602 1074.18 687.258 1074.14 688.015L1073.65 697.825C1073.63 698.513 1073.05 699.05 1072.36 699.026 1072.33 699.025 1072.29 699.022 1072.25 699.017Z" fill="#218EB6"/><path d="M1084.3 664.579C1086.75 665.17 1089.28 667.578 1089.28 667.578L1087.12 672.899C1087.12 672.899 1082.08 669.824 1081.61 668.129 1081 665.875 1081.95 664.01 1084.3 664.579Z" fill="#218EB6"/><path d="M1073.88 654.766C1074.39 657.88 1074.55 659.208 1076.29 660.655 1078.92 662.815 1082.64 661.512 1083.06 658.308 1083.44 655.428 1082.54 650.813 1079.34 649.88 1077.05 649.213 1074.65 650.529 1073.98 652.82 1073.8 653.452 1073.76 654.117 1073.88 654.766Z" fill="#B55B52"/><path d="M1081.57 650.129C1079.51 649.895 1075.81 646.889 1073.71 649.967 1071.79 652.804 1070.81 653.207 1067.84 654.362 1062.88 656.27 1065.64 658.294 1063.52 661.354 1061.4 664.414 1057.82 663.514 1057.31 667.65 1056.53 673.982 1067.51 681.751 1074.08 674.609 1080.65 667.466 1076.32 665.04 1079.28 662.999 1083.03 660.4 1082.08 656.072 1080.79 655.482 1082.2 654.042 1084.19 650.431 1081.57 650.129Z" fill="#263238"/><path d="M1081.9 654.841C1082.34 655.318 1082.61 655.927 1082.66 656.573 1082.71 657.383 1081.94 657.448 1081.3 656.933 1080.71 656.479 1079.97 655.493 1080.22 654.83 1080.47 654.168 1081.36 654.24 1081.9 654.841Z" fill="#B55B52"/><path d="M1081.11 684.041C1081.11 684.041 1079.84 703.042 1074.93 712.79 1072.94 716.75 1063.81 731.492 1063.81 731.492L1059.35 730.751C1059.35 730.751 1065.8 714.72 1069.76 710.951 1070.17 700.349 1067.08 689.228 1071.6 684.03Z" fill="#263238"/><path d="M1076.82 689.16C1076.68 693.653 1077.21 698.142 1078.39 702.48 1079.11 699.42 1079.64 696.306 1080.05 693.53 1079.15 691.948 1078.07 690.48 1076.82 689.16Z" fill="#000000" fill-opacity="0.4"/><path d="M1064.13 732.137 1058.8 730.69 1059.44 728.857 1065.18 730.211 1064.13 732.137Z" fill="#263238"/><path d="M1099.9 717.931 1103.14 718.406 1102.49 711.088 1099.25 710.609 1099.9 717.931Z" fill="#B55B52"/><path d="M1103.15 716.225 1099.62 715.685C1099.49 715.665 1099.37 715.74 1099.33 715.861L1098.5 718.597C1098.43 718.873 1098.6 719.153 1098.87 719.224 1098.89 719.228 1098.91 719.232 1098.92 719.234 1100.16 719.4 1100.76 719.418 1102.32 719.652 1103.27 719.8 1104.66 720.109 1105.97 720.311 1107.29 720.512 1107.56 719.231 1107.03 719.015 1104.65 718.111 1104.37 717.319 1103.64 716.495 1103.52 716.348 1103.34 716.252 1103.15 716.225Z" fill="#263238"/><path d="M1099.24 710.609 1102.49 711.088 1102.79 714.508 1099.58 714.385 1099.24 710.609Z" fill="#000000" fill-opacity="0.2"/><path d="M1084.52 684.041C1084.52 684.041 1105.83 687.641 1104.98 693.894 1103.65 703.769 1103.14 712.92 1103.14 712.92L1099 712.56C1099 712.56 1097.26 702.84 1098.46 696.331 1093.48 694.081 1072.41 702.829 1075.01 684.041Z" fill="#263238"/><path d="M1103.59 713.95 1098.1 713.302 1098.04 711.343 1103.87 711.829 1103.59 713.95Z" fill="#263238"/><path d="M1071.41 683.285 1070.82 684.44C1070.78 684.53 1070.88 684.62 1071.03 684.62L1084.6 684.62C1084.72 684.62 1084.81 684.566 1084.82 684.491L1084.94 683.335C1084.94 683.256 1084.84 683.188 1084.72 683.188L1071.61 683.188C1071.53 683.181 1071.45 683.218 1071.41 683.285Z" fill="#FFFFFF"/><path d="M1073.16 684.746 1072.8 684.746C1072.73 684.746 1072.68 684.71 1072.68 684.667L1072.85 683.166C1072.85 683.119 1072.91 683.083 1072.98 683.083L1073.34 683.083C1073.41 683.083 1073.47 683.119 1073.46 683.166L1073.3 684.667C1073.29 684.71 1073.23 684.746 1073.16 684.746Z" fill="#263238"/><path d="M1081.66 684.746 1081.3 684.746C1081.22 684.746 1081.17 684.71 1081.18 684.667L1081.34 683.166C1081.34 683.119 1081.41 683.083 1081.48 683.083L1081.84 683.083C1081.9 683.083 1081.96 683.119 1081.95 683.166L1081.79 684.667C1081.78 684.71 1081.72 684.746 1081.66 684.746Z" fill="#263238"/></g></svg>