<svg width="196" height="196" xmlns="http://www.w3.org/2000/svg" xmlns:xlink="http://www.w3.org/1999/xlink" xml:space="preserve" overflow="hidden"><defs><clipPath id="clip0"><rect x="491" y="110" width="196" height="196"/></clipPath></defs><g clip-path="url(#clip0)" transform="translate(-491 -110)"><path d="M594.609 187.659C572.14 188.878 511.984 170.803 516.629 209.799 520.522 242.418 565.061 249.83 588.032 248.768 617.918 247.376 647.82 224.28 651.269 192.924 652.755 179.439 646.828 164.896 631.936 170.003 626.91 171.724 621.297 179.019 616.06 181.618 609.357 184.954 602.128 187.251 594.609 187.659Z" fill="#F2852D"/><path d="M594.609 187.659C572.14 188.878 511.984 170.803 516.629 209.799 520.522 242.418 565.061 249.83 588.032 248.768 617.918 247.376 647.82 224.28 651.269 192.924 652.755 179.439 646.828 164.896 631.936 170.003 626.91 171.724 621.297 179.019 616.06 181.618 609.357 184.954 602.128 187.251 594.609 187.659Z" fill="#FFFFFF" fill-opacity="0.9"/><path d="M620.089 237.761C617.883 240.963 616.362 241.093 615.691 240.971 614.162 240.364 612.622 239.795 611.077 239.246 609.117 238.549 607.157 237.898 605.174 237.286 603.19 236.675 601.195 236.067 599.165 235.538 598.141 235.275 597.118 235.017 596.068 234.781 595.558 234.652 594.998 234.562 594.461 234.456 594.198 234.401 593.908 234.362 593.614 234.319L592.736 234.197 592.665 234.197 592.32 234.197C590.337 234.244 588.353 234.284 586.374 234.362L583.402 234.46 580.431 234.593C578.471 234.672 576.476 234.789 574.496 234.903 572.516 235.017 570.541 235.158 568.565 235.334L568.957 241.849C570.941 241.786 572.924 241.677 574.908 241.559 576.891 241.442 578.871 241.308 580.85 241.167L583.822 240.936 586.789 240.677C588.714 240.516 590.635 240.324 592.559 240.136L592.951 240.164C593.171 240.164 593.39 240.191 593.633 240.222 594.112 240.285 594.574 240.32 595.072 240.395 596.048 240.52 597.032 240.677 598.036 240.838 600.027 241.175 602.042 241.508 604.053 241.873L610.113 242.943C611.834 243.237 613.555 243.531 615.284 243.801 615.77 244.221 616.291 244.766 616.46 244.915 616.969 245.326 617.604 245.495 617.879 244.86 618.153 244.225 618.243 243.503 618.721 242.331 619.012 241.614 620.168 239.615 620.572 238.619 620.975 237.623 620.36 237.4 620.089 237.761Z" fill="#FFC3BD"/><path d="M620.089 237.761C617.883 240.963 616.362 241.093 615.691 240.971 614.162 240.364 612.622 239.795 611.077 239.246 609.117 238.549 607.157 237.898 605.174 237.286 603.19 236.675 601.195 236.067 599.165 235.538 598.141 235.275 597.118 235.017 596.068 234.781 595.558 234.652 594.998 234.562 594.461 234.456 594.198 234.401 593.908 234.362 593.614 234.319L592.736 234.197 592.665 234.197 592.32 234.197C590.337 234.244 588.353 234.284 586.374 234.362L583.402 234.46 580.431 234.593C578.471 234.672 576.476 234.789 574.496 234.903 572.516 235.017 570.541 235.158 568.565 235.334L568.957 241.849C570.941 241.786 572.924 241.677 574.908 241.559 576.891 241.442 578.871 241.308 580.85 241.167L583.822 240.936 586.789 240.677C588.714 240.516 590.635 240.324 592.559 240.136L592.951 240.164C593.171 240.164 593.39 240.191 593.633 240.222 594.112 240.285 594.574 240.324 595.072 240.395 596.048 240.52 597.032 240.677 598.036 240.838 600.027 241.175 602.042 241.508 604.053 241.873L610.113 242.943C611.834 243.237 613.555 243.531 615.284 243.801 615.77 244.221 616.291 244.766 616.46 244.915 616.969 245.326 617.604 245.495 617.879 244.86 618.153 244.225 618.243 243.503 618.721 242.331 619.012 241.614 620.168 239.615 620.572 238.619 620.975 237.623 620.36 237.4 620.089 237.761Z" fill="#000000" fill-opacity="0.2"/><path d="M569.627 219.145C569.706 219.537 569.823 219.999 569.929 220.43 570.035 220.862 570.16 221.304 570.29 221.736 570.552 222.602 570.846 223.453 571.172 224.272 571.487 225.072 571.87 225.845 572.316 226.581 572.705 227.246 573.195 227.845 573.771 228.357 574.218 228.762 574.791 229.002 575.394 229.039 575.701 229.04 576.008 228.997 576.303 228.913 576.603 228.831 576.886 228.698 577.142 228.521 577.721 228.097 578.178 227.527 578.467 226.871 578.641 226.491 578.785 226.097 578.898 225.695 579.022 225.291 579.123 224.88 579.2 224.464L579.2 224.37C579.285 223.914 579.724 223.615 580.179 223.7 580.531 223.766 580.802 224.048 580.854 224.401 580.932 224.934 580.958 225.474 580.933 226.012 580.91 226.557 580.834 227.098 580.705 227.627 580.443 228.809 579.831 229.884 578.949 230.712 578.471 231.153 577.915 231.502 577.311 231.74 576.709 231.981 576.069 232.113 575.421 232.132 574.747 232.151 574.075 232.042 573.442 231.81 572.841 231.589 572.278 231.277 571.772 230.885 570.875 230.176 570.108 229.317 569.506 228.345 568.946 227.458 568.46 226.527 568.052 225.562 567.65 224.63 567.307 223.674 567.024 222.7 566.879 222.218 566.746 221.736 566.632 221.25 566.519 220.764 566.409 220.285 566.307 219.74 566.13 218.824 566.729 217.936 567.646 217.759 568.563 217.581 569.45 218.181 569.627 219.098Z" fill="#FFC3BD"/><path d="M567.503 237.478C571.219 237.87 575.01 238.262 578.741 238.619 580.611 238.784 582.477 238.944 584.327 239.054 585.253 239.104 586.167 239.148 587.071 239.188L588.424 239.207 588.961 239.207C589.268 239.218 589.574 239.257 589.874 239.325 590.586 239.483 591.246 239.817 591.795 240.297 592.279 240.727 592.667 241.255 592.932 241.845 593.125 242.274 593.264 242.726 593.343 243.19 593.455 243.876 593.486 244.574 593.437 245.267 593.35 246.381 593.168 247.485 592.893 248.568 592.377 250.526 591.731 252.447 590.96 254.319 590.589 255.231 590.197 256.135 589.784 257.031 589.371 257.928 588.95 258.81 588.522 259.677 587.64 261.426 586.738 263.135 585.715 264.82L583.394 263.762C584.508 260.132 585.629 256.475 586.562 252.868 587.026 251.111 587.398 249.33 587.675 247.533 587.805 246.742 587.862 245.94 587.848 245.138 587.846 244.873 587.809 244.609 587.738 244.354 587.71 244.287 587.687 244.264 587.706 244.334 587.771 244.486 587.871 244.62 587.996 244.726 588.179 244.894 588.4 245.015 588.639 245.079 588.705 245.098 588.772 245.111 588.839 245.118L588.839 245.118 588.647 245.118 587.126 245.213 585.629 245.271C585.127 245.291 584.633 245.271 584.135 245.271 582.156 245.271 580.192 245.228 578.255 245.111 574.335 244.887 570.505 244.519 566.621 243.907Z" fill="#FFC3BD"/><path d="M581.858 264.84C582.113 264.617 583.324 263.805 583.688 263.323 584.053 262.841 585.041 264.421 585.131 264.475 585.55 264.867 585.958 264.421 585.891 264.566 585.644 265.11 585.272 266.651 588.294 269.564 588.624 269.881 588.294 270.465 587.401 269.916 586.507 269.368 584.7 267.894 584.037 267.486 582.959 266.827 582.309 266.655 581.685 266.247 581.062 265.84 581.368 265.291 581.858 264.84Z" fill="#FFC3BD"/><path d="M552.662 217.04C551.8 217.17 551.17 217.921 551.192 218.792 551.341 225.373 551.584 235.146 556.958 240.552 558.761 242.363 559.749 243.139 561.38 243.598 564.07 239.636 566.328 235.398 568.114 230.956 567.256 230.524 566.687 229.015 566.687 227.584 566.687 224.448 567.605 220.944 568.197 219.003 568.428 218.246 568.002 217.444 567.244 217.212 567.191 217.196 567.137 217.183 567.083 217.173 566.197 217.012 565.017 216.824 563.708 216.683 561.553 216.496 559.388 216.465 557.228 216.589 555.699 216.651 554.174 216.801 552.662 217.04Z" fill="#F2852D"/><path d="M552.662 217.04C551.8 217.17 551.17 217.921 551.192 218.792 551.341 225.373 551.584 235.146 556.958 240.552 558.761 242.363 559.749 243.139 561.38 243.598 564.07 239.636 566.328 235.398 568.114 230.956 567.256 230.524 566.687 229.015 566.687 227.584 566.687 224.448 567.605 220.944 568.197 219.003 568.428 218.246 568.002 217.444 567.244 217.212 567.191 217.196 567.137 217.183 567.083 217.173 566.197 217.012 565.017 216.824 563.708 216.683 561.553 216.496 559.388 216.465 557.228 216.589 555.699 216.651 554.174 216.801 552.662 217.04Z" fill="#000000" fill-opacity="0.5"/><path d="M551.235 220.544C551.329 223.829 551.537 227.663 552.364 231.285 553.457 227.149 553.54 219.874 553.54 219.874Z" fill="#000000" fill-opacity="0.2"/><path d="M568.114 230.956C568.114 230.956 573.049 232.81 582.857 233.535L582.171 243.025C577.075 246.22 563.92 244.593 562.669 241.226Z" fill="#263238"/><path d="M573.32 235.942 582.603 237.086 582.732 235.291C580.643 235.707 573.32 235.942 573.32 235.942Z" fill="#000000" fill-opacity="0.2"/><path d="M566.527 233.95C572.321 235.375 578.22 236.338 584.167 236.832L584.096 247.592C576.538 249.693 562.63 246.961 561.36 243.598Z" fill="#263238"/><path d="M553.72 219.725C553.085 221.967 552.473 224.272 551.944 226.553 551.682 227.698 551.454 228.843 551.243 229.979 551.042 231.089 550.911 232.21 550.851 233.335 550.851 233.602 550.851 233.864 550.851 234.119 550.851 234.251 550.866 234.383 550.898 234.511 550.921 234.558 550.866 234.511 550.815 234.484 550.764 234.456 550.815 234.511 550.945 234.519 551.373 234.513 551.798 234.434 552.199 234.284 552.711 234.108 553.211 233.9 553.696 233.66 554.734 233.156 555.742 232.593 556.715 231.975 557.707 231.359 558.698 230.697 559.655 230.034L559.655 230.034C560.032 229.766 560.556 229.854 560.825 230.232 561.066 230.571 561.022 231.036 560.721 231.324 558.958 233.071 557.012 234.621 554.916 235.95 554.352 236.29 553.768 236.595 553.167 236.863 552.462 237.185 551.703 237.373 550.929 237.416 550.373 237.439 549.82 237.313 549.33 237.051 548.78 236.744 548.349 236.26 548.107 235.679 547.928 235.245 547.822 234.784 547.793 234.315 547.769 233.97 547.758 233.633 547.754 233.3 547.769 232.029 547.866 230.76 548.044 229.501 548.205 228.266 548.436 227.059 548.683 225.86 549.177 223.457 549.773 221.12 550.494 218.764 550.766 217.872 551.709 217.368 552.602 217.639 553.483 217.907 553.987 218.831 553.736 219.717Z" fill="#FFC3BD"/><path d="M555.441 198.717C554.386 197.875 552.03 196.166 553.681 194.488 555.331 192.81 560.07 194.335 560.584 195.934 561.807 199.725 558.095 200.838 555.441 198.717Z" fill="#263238"/><path d="M555.504 195.895C555.021 194.68 553.869 192.124 555.935 191.191 558.001 190.258 561.152 193.567 560.87 195.291 560.196 199.376 556.715 198.96 555.504 195.895Z" fill="#263238"/><path d="M558.091 194.672C558.483 193.496 559.267 190.96 561.227 191.803 563.187 192.645 563.273 197.138 562.042 198.098 559.122 200.38 557.048 197.616 558.091 194.672Z" fill="#263238"/><path d="M559.721 201.563C558.585 201.955 556.978 201.763 556.895 199.721 556.813 197.679 558.804 196.26 560.956 196.369 564.163 196.53 562.591 200.587 559.721 201.563Z" fill="#F2852D"/><path d="M557.977 209.298C558.369 211.391 558.706 215.217 557.228 216.589 557.228 216.589 559.933 219.415 562.615 219.454 565.296 219.493 563.708 216.683 563.708 216.683 561.391 216.095 561.478 214.37 561.905 212.763Z" fill="#FFC3BD"/><path d="M557.613 206.628C555.782 204.801 554.535 201.336 558.118 198.616 561.701 195.895 567.577 199.607 568.208 202.712 569.098 207.114 562.234 211.238 557.613 206.628Z" fill="#263238"/><path d="M559.576 210.709 561.905 212.751C561.799 213.127 561.725 213.511 561.685 213.9 560.799 213.758 559.475 212.943 559.392 212.01 559.377 211.569 559.44 211.129 559.576 210.709Z" fill="#000000" fill-opacity="0.2"/><path d="M558.302 203.998C557.652 207.428 557.303 208.862 558.569 211.026 560.47 214.284 564.821 214.335 566.484 211.171 567.977 208.321 568.792 203.198 565.829 201.015 563.72 199.445 560.739 199.882 559.17 201.991 558.729 202.583 558.432 203.271 558.302 203.998Z" fill="#FFC3BD"/><path d="M557.248 205.315C557.711 207.02 562.524 204.801 563.265 202.179 564.328 203.857 568.169 204.962 567.863 203.108 567.558 201.254 565.119 198.725 562.156 199.266 559.192 199.807 556.464 202.355 557.248 205.315Z" fill="#263238"/><path d="M556.856 206.738C556.903 207.411 557.215 208.038 557.722 208.482 558.401 209.062 559.114 208.545 559.243 207.698 559.357 206.946 559.141 205.738 558.31 205.472 557.703 205.294 557.068 205.641 556.89 206.248 556.843 206.407 556.832 206.574 556.856 206.738Z" fill="#FFC3BD"/><path d="M563.077 206.73C563.006 207.004 563.077 207.263 563.273 207.31 563.469 207.357 563.665 207.169 563.728 206.895 563.79 206.62 563.708 206.358 563.528 206.314 563.348 206.271 563.128 206.456 563.077 206.73Z" fill="#263238"/><path d="M566.182 207.518C566.111 207.792 566.201 208.051 566.382 208.098 566.562 208.145 566.774 207.957 566.832 207.682 566.891 207.408 566.832 207.149 566.632 207.102 566.433 207.055 566.264 207.243 566.182 207.518Z" fill="#263238"/><path d="M566.55 207.098 567.26 207.075C567.26 207.075 566.789 207.506 566.55 207.098Z" fill="#263238"/><path d="M565.029 207.549C565.246 208.241 565.554 208.9 565.946 209.509 565.648 209.71 565.277 209.77 564.931 209.674Z" fill="#ED847E"/><path d="M563.52 210.544C563.555 210.546 563.586 210.526 563.598 210.493 563.606 210.455 563.584 210.418 563.547 210.407 562.846 210.245 562.264 209.759 561.979 209.098 561.969 209.062 561.932 209.042 561.897 209.052 561.894 209.053 561.892 209.053 561.889 209.054 561.854 209.067 561.836 209.105 561.846 209.141 562.139 209.851 562.761 210.374 563.512 210.54Z" fill="#263238"/><path d="M562.485 205.303C562.518 205.309 562.551 205.301 562.579 205.283 562.934 205.033 563.388 204.969 563.798 205.111 563.868 205.14 563.948 205.108 563.978 205.038 563.978 205.037 563.979 205.037 563.979 205.036 564.005 204.97 563.976 204.896 563.912 204.864 563.416 204.684 562.863 204.758 562.43 205.06 562.367 205.101 562.348 205.186 562.389 205.25 562.39 205.251 562.391 205.251 562.391 205.252 562.415 205.28 562.448 205.299 562.485 205.303Z" fill="#263238"/><path d="M568.016 206.581C568.091 206.593 568.162 206.542 568.173 206.467 568.179 206.432 568.171 206.395 568.15 206.365 567.856 205.928 567.367 205.66 566.84 205.648 566.764 205.652 566.705 205.717 566.707 205.793 566.709 205.869 566.772 205.929 566.848 205.926 566.849 205.926 566.85 205.926 566.852 205.926 567.286 205.942 567.685 206.165 567.926 206.526 567.946 206.557 567.979 206.577 568.016 206.581Z" fill="#263238"/><path d="M563.445 206.31 564.151 206.287C564.151 206.287 563.681 206.714 563.445 206.31Z" fill="#263238"/><path d="M572.567 220.936C572.567 220.936 571.34 219.76 568.773 220.066 566.205 220.372 565.245 219.65 565.245 219.65L563.767 220.368 561.223 234.24 569.937 235.154Z" fill="#F5F5F5"/><path d="M572.567 220.936C572.567 220.936 573.481 219.239 575.876 219.509 578.271 219.78 578.953 218.686 578.953 218.686L580.168 219.403 577.632 233.264 569.968 235.142Z" fill="#F5F5F5"/><path d="M569.133 235.671 561.086 234.758C560.869 234.761 560.691 234.588 560.688 234.372 560.688 234.348 560.689 234.323 560.694 234.299L563.199 220.658C563.252 220.399 563.475 220.21 563.74 220.199L571.791 221.112C571.867 221.111 571.93 221.171 571.931 221.247 571.932 221.257 571.93 221.267 571.928 221.277L569.314 235.507C569.297 235.596 569.223 235.663 569.133 235.671Z" fill="#F2852D"/><path d="M569.133 235.671 561.086 234.758C560.869 234.761 560.691 234.588 560.688 234.372 560.688 234.348 560.689 234.323 560.694 234.299L563.199 220.658C563.252 220.399 563.475 220.21 563.74 220.199L571.791 221.112C571.867 221.111 571.93 221.171 571.931 221.247 571.932 221.257 571.93 221.267 571.928 221.277L569.314 235.507C569.297 235.596 569.223 235.663 569.133 235.671Z" fill="#FFFFFF" fill-opacity="0.1"/><path d="M570.576 235.671 577.577 233.794C577.841 233.781 578.063 233.593 578.118 233.335L580.623 219.693C580.662 219.48 580.521 219.276 580.308 219.237 580.283 219.232 580.257 219.23 580.231 219.231L573.23 221.112C573.134 221.114 573.052 221.183 573.034 221.277L570.419 235.507C570.4 235.578 570.442 235.651 570.514 235.67 570.534 235.675 570.555 235.676 570.576 235.671Z" fill="#F2852D"/><path d="M570.576 235.671 577.577 233.794C577.841 233.781 578.063 233.593 578.118 233.335L580.623 219.693C580.662 219.48 580.521 219.276 580.308 219.237 580.283 219.232 580.257 219.23 580.231 219.231L573.23 221.112C573.134 221.114 573.052 221.183 573.034 221.277L570.419 235.507C570.4 235.578 570.442 235.651 570.514 235.67 570.534 235.675 570.555 235.676 570.576 235.671Z" fill="#FFFFFF" fill-opacity="0.1"/><path d="M570.262 235.671 569.455 235.671C569.388 235.676 569.33 235.625 569.326 235.558 569.325 235.545 569.326 235.531 569.329 235.518L571.944 221.265C571.963 221.177 572.039 221.114 572.128 221.112L572.928 221.112C572.995 221.108 573.053 221.159 573.057 221.226 573.058 221.239 573.057 221.252 573.053 221.265L570.439 235.518C570.421 235.603 570.349 235.666 570.262 235.671Z" fill="#F2852D"/><path d="M570.262 235.671 569.455 235.671C569.388 235.676 569.33 235.625 569.326 235.558 569.325 235.545 569.326 235.531 569.329 235.518L571.944 221.265C571.963 221.177 572.039 221.114 572.128 221.112L572.928 221.112C572.995 221.108 573.053 221.159 573.057 221.226 573.058 221.239 573.057 221.252 573.053 221.265L570.439 235.518C570.421 235.603 570.349 235.666 570.262 235.671Z" fill="#FFFFFF" fill-opacity="0.3"/><path d="M559.965 231.438 563.046 230.893 562.011 228.149C562.011 228.149 559.996 229.419 559.322 230.548Z" fill="#FFC3BD"/><path d="M564.716 230.238 564.531 227.392 562.011 228.157 563.046 230.893 564.716 230.238Z" fill="#FFC3BD"/><path d="M581.176 224.942 581.003 221.367 578.612 221.214 579.588 225.021 581.176 224.942Z" fill="#FFC3BD"/></g></svg>