<svg width="144" height="145" xmlns="http://www.w3.org/2000/svg" xmlns:xlink="http://www.w3.org/1999/xlink" xml:space="preserve" overflow="hidden"><defs><clipPath id="clip0"><rect x="1112" y="0" width="144" height="145"/></clipPath></defs><g clip-path="url(#clip0)" transform="translate(-1112 0)"><path d="M67.968 106.416C65.952 104.328 63.576 101.448 62.64 100.08 61.704 98.712 60.84 97.416 60.696 97.272 60.552 97.128 59.04 97.992 57.24 99.288 53.928 101.664 46.296 105.12 44.352 105.12 43.2 105.12 40.68 98.28 39.888 93.096 39.6 91.368 39.384 90 39.312 90 39.312 90 36.936 90.504 34.2 91.08 31.392 91.656 27.072 92.16 24.552 92.16L19.944 92.16 20.376 87.624C21.24 78.336 26.208 68.688 33.552 61.992L37.152 58.68 33.192 56.232C30.96 54.864 27.432 52.848 25.416 51.696 23.328 50.544 21.6 49.32 21.6 49.032 21.6 48.096 24.696 45.504 29.088 42.912 36.864 38.232 49.248 36.864 57.528 39.816L60.624 40.896 64.008 38.52C65.808 37.224 68.4 35.64 69.624 34.992 71.928 33.84 72.144 33.912 75.456 35.568 77.4 36.576 79.992 38.16 81.144 39.168 83.304 40.968 83.448 41.04 86.112 39.888 93.528 36.792 107.136 38.232 114.912 42.912 119.304 45.504 122.4 48.096 122.4 49.032 122.4 49.32 120.672 50.544 118.656 51.696 116.568 52.848 113.04 54.864 110.808 56.232L106.776 58.752 109.944 61.488C117.144 67.752 122.76 78.48 123.624 87.624L124.056 92.16 119.448 92.16C116.928 92.16 112.608 91.656 109.8 91.08 107.064 90.504 104.688 90 104.616 90 104.472 90 104.4 90.792 104.4 91.8 104.4 94.896 100.728 105.12 99.576 105.12 97.776 105.12 90.144 101.736 86.76 99.36 84.96 98.064 83.304 97.2 83.232 97.344 83.16 97.416 82.296 98.712 81.36 100.08 79.632 102.744 72.72 110.16 72 110.16 71.784 110.16 69.984 108.432 67.968 106.416ZM75.24 103.608C80.712 97.56 84.24 90 85.32 82.08 86.472 73.728 82.224 61.632 75.6 54.576L72 50.76 68.4 54.576C61.776 61.632 57.528 73.728 58.68 82.08 59.328 86.976 61.704 93.744 64.08 97.416 66.384 101.016 71.136 106.56 72 106.56 72.288 106.56 73.728 105.264 75.24 103.608ZM51.84 99.288C59.616 95.112 59.4 95.4 57.672 89.64 54.288 78.696 56.376 65.952 62.928 57.384 64.44 55.44 65.448 53.712 65.232 53.496 63.936 52.2 51.84 62.928 48.096 68.76 43.776 75.384 42.192 81.504 42.696 89.928 42.984 96.336 44.568 102.24 45.936 102.24 46.224 102.24 48.888 100.872 51.84 99.288ZM100.008 99.216C101.448 94.752 101.88 84.816 100.8 79.992 99.36 73.44 96.048 67.824 90.432 62.28 85.032 56.952 79.488 52.776 78.768 53.496 78.48 53.712 79.488 55.296 80.856 56.952 85.104 61.92 87.336 68.256 87.696 76.824 87.912 82.944 87.768 85.032 86.4 89.352 85.104 93.672 85.032 94.68 85.824 95.472 86.832 96.48 97.632 102.24 98.496 102.24 98.784 102.24 99.432 100.872 100.008 99.216ZM34.2 88.128 39.312 87.12 40.104 82.152C41.04 76.176 44.208 69.048 48.384 63.648 51.696 59.4 58.824 53.568 62.136 52.416 63.216 51.984 64.08 51.408 64.08 51.048 64.08 49.536 50.328 54.144 43.704 57.888 32.616 64.008 23.112 77.976 23.04 88.056 23.04 89.928 23.112 90 26.136 89.568 27.792 89.352 31.464 88.704 34.2 88.128ZM120.96 88.056C120.888 81.36 116.208 71.856 109.656 65.232 102.96 58.392 93.744 53.64 81.864 50.832 79.488 50.256 79.848 51.552 82.296 52.488 85.32 53.64 92.736 59.76 95.616 63.576 99.72 68.832 103.032 76.248 103.896 82.152L104.688 87.12 109.8 88.2C114.192 89.136 115.92 89.424 120.096 89.928 120.6 89.928 120.96 89.208 120.96 88.056ZM43.128 55.008C44.64 54 48.168 52.416 50.832 51.48 55.152 49.968 55.872 49.464 56.376 47.592 56.664 46.368 57.24 45.216 57.6 45 61.056 42.84 53.424 40.68 44.136 41.184 38.952 41.472 37.44 41.904 32.04 44.568 25.848 47.592 24.84 48.6 27.216 49.464 27.864 49.68 29.952 50.976 31.752 52.344 34.416 54.216 38.952 56.664 40.176 56.88 40.248 56.88 41.616 56.016 43.128 55.008ZM112.248 52.344C114.048 50.976 116.136 49.68 116.856 49.464 119.16 48.6 118.152 47.592 111.96 44.568 106.56 41.904 105.048 41.472 99.864 41.184 90.576 40.68 82.944 42.84 86.4 45 86.76 45.216 87.336 46.368 87.624 47.592 88.128 49.464 88.848 49.968 92.952 51.408 95.544 52.344 99.072 53.928 100.8 54.936 103.752 56.664 104.112 56.736 106.416 55.728 107.784 55.224 110.376 53.64 112.248 52.344ZM68.04 47.808C71.28 47.592 76.32 47.736 79.488 48.168 82.656 48.6 85.32 48.888 85.464 48.672 86.256 47.88 80.352 41.76 76.464 39.456L72.072 36.72 67.752 39.24C61.416 42.984 56.304 49.824 60.696 48.744 61.56 48.456 64.872 48.096 68.04 47.808Z" fill="#FFFFFF" transform="matrix(1 0 0 -1.00694 1112 145)"/></g></svg>